<svg id="Layer_1" data-name="Layer 1" xmlns="http://www.w3.org/2000/svg" viewBox="0 0 74.79 57.34">
  <defs>
    <style>
      .cls-1 {
        fill: #00407e;
      }
    </style>
  </defs>
  <title>carnicos</title>
  <g>
    <path class="cls-1" d="M86,65.93l1.17-4.69a1.24,1.24,0,0,0-1.41-1.53l-5.83,1a12.32,12.32,0,0,0-3.63-4.87,28.14,28.14,0,0,0,2.18-11.07,25.66,25.66,0,0,0-5.62-16.67,19.74,19.74,0,0,0-15.57-7H39.79A23.7,23.7,0,0,0,18.53,55.18a12.46,12.46,0,0,0,6.3,23.21H69.71a11.23,11.23,0,0,0,10.17-7.22l5.83,1a1.24,1.24,0,0,0,1.12-.38,1.27,1.27,0,0,0,.29-1.15Zm-15-36.25a23.23,23.23,0,0,1,5,15.06,25.72,25.72,0,0,1-1.83,9.72,10.07,10.07,0,0,0-2.06-.72,29,29,0,0,0,1.4-9,25.72,25.72,0,0,0-5.62-16.67A20.18,20.18,0,0,0,64.54,25a16.79,16.79,0,0,1,6.37,4.72m-10,0a23.23,23.23,0,0,1,5,15.06,25.87,25.87,0,0,1-1.45,8.72h-2.7A23.73,23.73,0,0,0,51,23.89a16.91,16.91,0,0,1,9.91,5.79m1.9-1.61A20.18,20.18,0,0,0,59.55,25a16.79,16.79,0,0,1,6.37,4.72,23.18,23.18,0,0,1,5,15.06,25.61,25.61,0,0,1-1.44,8.72H67.15a28.37,28.37,0,0,0,1.31-8.72,25.72,25.72,0,0,0-5.62-16.67M18.6,44.74a21.19,21.19,0,1,1,40.51,8.72H24.83a12.27,12.27,0,0,0-4,.68,21.17,21.17,0,0,1-2.2-9.4M14.86,65.93a10,10,0,1,1,10,10,10,10,0,0,1-10-10m54.85,10H32.3a12.45,12.45,0,0,0,0-20h5c2.79,0,7.48,1.3,7.48,10a1.25,1.25,0,0,0,2.49,0c0-4.43-1.2-7.85-3.38-10h5.87c2.8,0,7.48,1.3,7.48,10a1.25,1.25,0,0,0,2.49,0c0-4.43-1.2-7.85-3.38-10H61c2.79,0,7.48,1.3,7.48,10a1.25,1.25,0,0,0,2.49,0c0-4.43-1.2-7.85-3.38-10h2.14c4.81,0,8.72,4.48,8.72,10s-3.91,10-8.72,10m13.74-9.67.79,3.14-3.61-.6a14,14,0,0,0,0-5.69l3.61-.6-.79,3.14a1.26,1.26,0,0,0,0,.61" transform="translate(-12.37 -21.05)"/>
    <path class="cls-1" d="M22.34,64.68a3.74,3.74,0,1,0,3.74,3.74,3.72,3.72,0,0,0-3.74-3.74m0,5a1.24,1.24,0,1,1,1.25-1.24,1.24,1.24,0,0,1-1.25,1.24" transform="translate(-12.37 -21.05)"/>
    <path class="cls-1" d="M40.78,48.11a1.26,1.26,0,0,0,1.76,0l5-5a1.24,1.24,0,1,0-1.76-1.76l-5,5a1.23,1.23,0,0,0,0,1.76" transform="translate(-12.37 -21.05)"/>
    <path class="cls-1" d="M29.82,48.48a1.26,1.26,0,0,0,.88-.37L44.41,34.4a1.24,1.24,0,1,0-1.76-1.76L28.94,46.35a1.23,1.23,0,0,0-.27,1.36,1.26,1.26,0,0,0,1.15.77" transform="translate(-12.37 -21.05)"/>
  </g>
</svg>
