<svg width="70" height="70" viewBox="0 0 70 70" fill="none" xmlns="http://www.w3.org/2000/svg">
<path d="M11.6667 29.7092H26.8333C27.4785 29.7092 28 29.1865 28 28.5425C28 27.8985 27.4785 27.3759 26.8333 27.3759H11.6667C11.0215 27.3759 10.5 27.8985 10.5 28.5425C10.5 29.1865 11.0215 29.7092 11.6667 29.7092Z" fill="#F38941"/>
<path d="M42 34.3759H11.6667C11.0215 34.3759 10.5 34.8985 10.5 35.5425C10.5 36.1865 11.0215 36.7092 11.6667 36.7092H42C42.6452 36.7092 43.1667 36.1865 43.1667 35.5425C43.1667 34.8985 42.6452 34.3759 42 34.3759Z" fill="#F38941"/>
<path d="M42 41.3759H11.6667C11.0215 41.3759 10.5 41.8985 10.5 42.5425C10.5 43.1865 11.0215 43.7092 11.6667 43.7092H42C42.6452 43.7092 43.1667 43.1865 43.1667 42.5425C43.1667 41.8985 42.6452 41.3759 42 41.3759Z" fill="#F38941"/>
<path d="M63.084 2.95752L23.2517 2.87585C19.4367 2.87585 16.3333 5.97919 16.3333 9.79419V15.7722L6.91833 15.792C3.10333 15.792 0 18.8954 0 22.7104V47.3749C0 51.1898 3.10333 54.292 6.91833 54.292H14V65.9587C14 66.4405 14.2963 66.8734 14.7467 67.0472C14.8832 67.0997 15.0255 67.1254 15.1667 67.1254C15.4887 67.1254 15.8048 66.9912 16.03 66.7439L27.3513 54.2897L46.7483 54.2104C50.5633 54.2104 53.6667 51.107 53.6667 47.2932V47.1614L59.8033 53.9117C60.0285 54.159 60.3447 54.2932 60.6667 54.2932C60.8078 54.2932 60.9502 54.2675 61.0867 54.215C61.537 54.0412 61.8333 53.6084 61.8333 53.1265V41.4599H63.0817C66.8967 41.4599 70 38.3565 70 34.5427V9.87585C70 6.06202 66.8978 2.95869 63.084 2.95752ZM51.3333 47.292C51.3333 49.8202 49.2765 51.8759 46.7437 51.8759L26.8287 51.9575C26.502 51.9587 26.1893 52.0975 25.97 52.339L16.3333 62.9405V53.1242C16.3333 52.4802 15.8118 51.9575 15.1667 51.9575H6.91833C4.39017 51.9575 2.33333 49.9007 2.33333 47.3737V22.7092C2.33333 20.181 4.39017 18.1242 6.92067 18.1242L17.5 18.102C17.5012 18.102 17.5012 18.102 17.5023 18.102L46.7483 18.0414C49.2765 18.0414 51.3333 20.0982 51.3333 22.6264V44.1409V47.292ZM67.6667 34.5404C67.6667 37.0685 65.6098 39.1242 63.0817 39.1242H60.6667C60.0215 39.1242 59.5 39.6469 59.5 40.2909V50.1072L53.6667 43.6905V22.6275C53.6667 18.8125 50.5633 15.7092 46.746 15.7092L18.6667 15.7664V9.79302C18.6667 7.26485 20.7235 5.20802 23.2493 5.20802L63.0805 5.28969C63.0817 5.28969 63.0817 5.28969 63.0828 5.28969C65.611 5.28969 67.6678 7.34652 67.6678 9.87469V34.5404H67.6667Z" fill="#F38941"/>
</svg>
