<svg id="Layer_1" data-name="Layer 1" xmlns="http://www.w3.org/2000/svg" viewBox="0 0 160.73 160.34">
  <defs>
    <style>
      .cls-1 {
        fill: #fff;
      }
    </style>
  </defs>
  <title>conservas</title>
  <g>
    <path class="cls-1" d="M102.64,180.61c39.93,0,80.36-7.36,80.36-21.44V81.81a.24.24,0,0,0,0-.08,2.32,2.32,0,0,0,0-.24,6.41,6.41,0,0,0-.1-1.16,2.6,2.6,0,0,0-.42-1.08C180.47,68.1,158,50.49,114,34.42,79.26,21.73,47.81,17,35.75,22.6a9.61,9.61,0,0,0-5.32,5.3c-3.49,9.62,12.4,22.71,35,34.43C49,64.51,22.27,69.84,22.27,81.49c0,.05,0,.17,0,.24s0,0,0,.08v77.36c0,14.08,40.43,21.44,80.37,21.44m-4-103.81q7.2,2.63,14.16,4.79c-2.45,0-4.92-.1-7.42-.1-25.67,0-49.4,2.67-65.11,7.32a2.5,2.5,0,0,0-1.07.66,44.91,44.91,0,0,1-6-2.64C44.25,80.92,69.27,76.67,97,76.2l1.61.6m54.64,13.65c2,.33,4,.71,5.95,1.11a231.72,231.72,0,0,1-56.58,6c-2,0-3.89,0-5.82-.06H96a262.62,262.62,0,0,1-37.87-3.35L56.2,93.8l-1-.2q-3.51-.67-6.62-1.41a267.57,267.57,0,0,1,56.81-5.34,323.92,323.92,0,0,1,36.45,2c4,.73,7.87,1.27,11.45,1.62m24.37,68.72c0,6.72-28.53,16.08-75,16.08s-75-9.36-75-16.08V89.72l.19.12c.61.41,1.26.82,2,1.22l.79.45c.54.28,1.1.56,1.69.84s1.11.52,1.69.78l1,.39c.92.38,1.88.75,2.89,1.11h0a138.94,138.94,0,0,0,27.55,6l1,.13c1.35.17,2.71.33,4.09.48.67.08,1.34.15,2,.21l3.26.31,2.81.24,2.72.19q1.62.12,3.27.21l2.64.14,3.31.15c1.06,0,2.13.06,3.19.09l2.83.08q3.06.06,6.13.06c1.73,0,3.46,0,5.19,0l1.12,0c1.7,0,3.39-.08,5.08-.13l.79,0c1.55-.05,3.08-.12,4.62-.2l.88,0c1.67-.09,3.33-.2,5-.32l1-.08c1.61-.12,3.21-.25,4.79-.4l.26,0c1.63-.15,3.25-.32,4.84-.51l1-.11c1.57-.19,3.13-.39,4.66-.6l.55-.08c1.41-.2,2.8-.41,4.16-.64l.84-.13c1.45-.24,2.87-.5,4.27-.77l.82-.17c1.31-.26,2.58-.52,3.83-.81l.41-.09c1.31-.3,2.59-.62,3.83-1l.83-.22q1.85-.51,3.57-1l.32-.1c1.06-.34,2.07-.69,3-1.06l.67-.24c1-.39,2-.79,2.89-1.2l.55-.26c.81-.38,1.59-.76,2.32-1.16l.39-.21a24.76,24.76,0,0,0,2.18-1.37l.25-.15ZM35.47,29.73A4.5,4.5,0,0,1,38,27.46a29.87,29.87,0,0,1,11.92-1.81c13.68,0,35.79,4.14,62.25,13.81,43.91,16,67.45,35.28,65,42a4.45,4.45,0,0,1-2.54,2.28c-5.06,2.36-16.23,2.52-31.55-.17a.11.11,0,0,1-.06,0h-.13a255.44,255.44,0,0,1-42.43-11.8C91.33,68.43,83.1,65,75.78,61.49l-.16-.08C47.85,48.22,33.53,35.07,35.47,29.73m38.85,37c3.34,1.56,6.78,3.09,10.28,4.57-25.54,1.43-46.47,5.88-56.13,12.06a3.21,3.21,0,0,1-.8-1.64s0,0,0-.08h0c0-.06,0-.12,0-.18.11-4.33,14.63-11.68,46.69-14.72" transform="translate(-22.27 -20.27)"/>
    <path class="cls-1" d="M170.1,101.81a5.24,5.24,0,0,0-4.7-.81c-21.34,6.57-51,7.28-62.76,7.28s-41.42-.71-62.76-7.28a5.26,5.26,0,0,0-4.71.81A5.39,5.39,0,0,0,33,106.13v49.13A5.31,5.31,0,0,0,35.85,160c9.24,4.75,34.08,9.87,66.79,9.87s57.54-5.12,66.78-9.87a5.31,5.31,0,0,0,2.86-4.76V106.13a5.39,5.39,0,0,0-2.18-4.32m-67.46,62.72c-36.63,0-58.1-6.07-64.3-9.27l0-49.14c22,6.78,52.33,7.52,64.34,7.52s42.29-.74,64.29-7.51l0,49.12c-6.23,3.21-27.69,9.28-64.32,9.28" transform="translate(-22.27 -20.27)"/>
    <path class="cls-1" d="M152.18,119.34a2.69,2.69,0,0,0-2.7,0l-14.16,8.39c-8.29-5.49-22.51-8.77-38-8.77-26,0-45.54,8.64-45.54,20.09s19.58,20.1,45.54,20.1c17.07,0,32.47-4,40.12-10.32l12.07,7.25a2.68,2.68,0,0,0,4.06-2.29V121.67a2.68,2.68,0,0,0-1.35-2.33M57.1,139.08c0-4.38,6.52-9.06,17.23-12l.62,1.12a21.41,21.41,0,0,1-.57,22.8c-10.74-2.89-17.28-7.58-17.28-12m91.08,10-8-4.82a5.34,5.34,0,0,0-6.11.42c-6.7,5.55-21.13,9.14-36.77,9.14a95.15,95.15,0,0,1-17.42-1.55,26.51,26.51,0,0,0-.1-26.35,94.51,94.51,0,0,1,17.52-1.57c14.31,0,27.75,3,35.07,7.88a5.37,5.37,0,0,0,5.8.18l10-6Z" transform="translate(-22.27 -20.27)"/>
    <path class="cls-1" d="M105.64,68.62a287.23,287.23,0,0,0,33.91,10.13,2.68,2.68,0,0,0,1.18-5.23,279.29,279.29,0,0,1-33.26-9.94A259.05,259.05,0,0,1,69.13,46.23a2.68,2.68,0,0,0-2.64,4.66,265,265,0,0,0,39.15,17.73" transform="translate(-22.27 -20.27)"/>
    <path class="cls-1" d="M70,38.45a270.15,270.15,0,0,1,38.55,11.07A271.07,271.07,0,0,1,141.57,64a2.68,2.68,0,1,0,2.5-4.74,274.5,274.5,0,0,0-33.73-14.76A273.8,273.8,0,0,0,71,33.2,2.68,2.68,0,0,0,70,38.45" transform="translate(-22.27 -20.27)"/>
  </g>
</svg>
