<svg id="Layer_1" data-name="Layer 1" xmlns="http://www.w3.org/2000/svg" viewBox="0 0 63 63">
  <defs>
    <style>
      .cls-1 {
        fill: #00407e;
      }
    </style>
  </defs>
  <title>conservasblue</title>
  <g>
    <path class="cls-1" d="M69.47,45.91a7.35,7.35,0,0,0-12.15-5.48,4.11,4.11,0,0,1-3.9.58,6.31,6.31,0,0,0-8,4.68,6.51,6.51,0,0,0,0,2.41H43.22a4.2,4.2,0,1,0-8.4,0H23.27A5.22,5.22,0,0,0,18,53.35V76.47a5.25,5.25,0,0,0,5.25,5.25h9.45a1,1,0,1,0,0-2.1H23.27a3.15,3.15,0,0,1-3.15-3.15V53.37a3.15,3.15,0,0,1,3.15-3.15H34.82v.59c-7,1.94-12.14,7.92-12.36,8.18a1,1,0,0,0,0,1.35,29,29,0,0,0,4.38,4,29.51,29.51,0,0,0-4.38,4,1,1,0,0,0,0,1.35c.23.27,5.46,6.4,12.6,8.25a5.25,5.25,0,0,0,5,3.68h21a5.25,5.25,0,0,0,5.25-5.25V53.37a5.6,5.6,0,0,0-.16-1.23,7.37,7.37,0,0,0,3.31-6.23M36.92,48.12a2.1,2.1,0,0,1,4.2,0V72.83a4.2,4.2,0,0,0-4.2,0Zm-2.1,14.32V75.79a17,17,0,0,1-2.3-.92,13.86,13.86,0,0,0,0-11.55,18.19,18.19,0,0,1,2.3-.88m0-2.17-1,.33c0-.31,0-.63,0-.93a14.16,14.16,0,0,0-1.25-5.77,18.2,18.2,0,0,1,2.25-.9Zm-10.13-.6a29.06,29.06,0,0,1,5.93-4.78,12.09,12.09,0,0,1,1.05,4.78,11.23,11.23,0,0,1-.18,1.83,26.68,26.68,0,0,0-2.85,1.61,32.35,32.35,0,0,1-3.95-3.44m0,9.45a29.93,29.93,0,0,1,6-4.77,11.88,11.88,0,0,1,0,9.53,29.88,29.88,0,0,1-6-4.76m39.53,7.35a3.15,3.15,0,0,1-3.15,3.15h-21a3.15,3.15,0,0,1-3.15-3.15,2.1,2.1,0,1,1,4.2,0,1.05,1.05,0,1,0,2.1,0v-2.1h10.5a1,1,0,1,0,0-2.1H43.22v-2.1h14.7a1,1,0,1,0,0-2.1H43.22v-8.4h9.45a1.05,1.05,0,0,0,0-2.1H43.22V54.42H59v3.15h-2.1a1,1,0,1,0,0,2.1H60a1,1,0,0,0,1-1.05V53.37a1,1,0,0,0-1-1H43.22v-2.1H61.07A3.12,3.12,0,0,1,64,52.12a3,3,0,0,1,.27,1.25Zm-3.15-29.4a1.05,1.05,0,0,1,1.79-.75,1.05,1.05,0,0,1-.74,1.8,1,1,0,0,1-1-1m3.27,2.22a3.15,3.15,0,1,0-5.18-1.17H47.61a4.14,4.14,0,0,1,0-2,4.2,4.2,0,0,1,5.3-3.1,6.15,6.15,0,0,0,5.88-1,5.21,5.21,0,0,1,3.75-1.22,5.35,5.35,0,0,1,4.83,5.17,5.28,5.28,0,0,1-2.1,4.28,5.12,5.12,0,0,0-.93-.93" transform="translate(-18.02 -18.72)"/>
    <path class="cls-1" d="M77.87,25H80A1,1,0,0,0,81,24v-4.2a1,1,0,0,0-1-1.05H33.77a1,1,0,0,0-1.05,1.05V24A1,1,0,0,0,33.77,25h2.1V41.59a1.05,1.05,0,1,0,2.1,0V35.52H72.62a1.05,1.05,0,0,0,0-2.1H38v-4.2h10.5a1,1,0,1,0,0-2.1H38V25h37.8v2.1h-6.3a1.05,1.05,0,1,0,0,2.1h6.3v29.4h-6.3a1,1,0,0,0,0,2.1h6.3v3.15h-6.3a1.05,1.05,0,1,0,0,2.1h6.3v3.15h-6.3a1,1,0,1,0,0,2.1h9.45v2.1H69.47a1.05,1.05,0,0,0,0,2.1H80a1,1,0,0,0,1-1v-4.2a1,1,0,0,0-1-1h-2.1Zm-43.05-4.2h44.1v2.1H34.82Z" transform="translate(-18.02 -18.72)"/>
    <path class="cls-1" d="M30.62,58.62a1.05,1.05,0,1,1-1.05-1,1,1,0,0,1,1.05,1" transform="translate(-18.02 -18.72)"/>
    <path class="cls-1" d="M30.62,68.07a1.05,1.05,0,1,1-1.05-1,1,1,0,0,1,1.05,1" transform="translate(-18.02 -18.72)"/>
  </g>
</svg>
