<svg id="Layer_1" data-name="Layer 1" xmlns="http://www.w3.org/2000/svg" viewBox="0 0 159.33 159.33"><defs><style>.cls-1{fill:#fff;}.cls-2{fill:#1c4183;}.cls-3,.cls-4,.cls-6,.cls-7{fill:none;stroke-miterlimit:10;}.cls-3,.cls-4{stroke:#fff;}.cls-3{stroke-width:1.99px;}.cls-4{stroke-width:0.3px;}.cls-5{fill:#00467f;}.cls-6,.cls-7{stroke:#00467f;}.cls-6{stroke-width:0.12px;}.cls-7{stroke-width:0.48px;}</style></defs><title>costa-sal</title><path class="cls-1" d="M56.26,97.66v2.19l-3.55.18V98c0-2-.74-2.82-2.09-2.82s-2.09.87-2.09,2.47V111c0,1.6.73,2.47,2.09,2.47s2.09-.87,2.09-2.82v-2.72l3.55.18V111c0,3.7-2.13,5.86-5.75,5.86s-5.68-2.16-5.68-5.86V97.66c0-3.69,2.09-5.85,5.68-5.85s5.75,2.16,5.75,5.85" transform="translate(-20.76 -20.21)"/><path class="cls-1" d="M70.92,98v12.75c0,3.83-2.26,6.17-6,6.17s-6-2.34-6-6.17V98c0-3.83,2.26-6.16,6-6.16s6,2.33,6,6.16M62.7,98v12.68c0,1.81.8,2.78,2.27,2.78s2.26-1,2.26-2.78V98c0-1.81-.8-2.79-2.26-2.79S62.7,96.2,62.7,98" transform="translate(-20.76 -20.21)"/><path class="cls-1" d="M84.33,97.28v.62l-3.55.35v-.9c0-1.4-.66-2.13-1.88-2.13S77,96,77,97.35v.31c0,1.43.63,2.65,3.1,4.74,3.38,2.85,4.63,4.87,4.63,7.8v1.22c0,3.48-2,5.47-5.71,5.47s-5.71-2-5.71-5.47v-1.64l3.55-.35v1.75c0,1.53.7,2.29,2.09,2.29s2.09-.76,2.09-2.29v-.81c0-1.53-.73-2.75-3.21-4.84-3.37-2.85-4.52-4.88-4.52-7.73v-.52c0-3.49,2-5.47,5.5-5.47s5.5,2,5.5,5.47" transform="translate(-20.76 -20.21)"/><polygon class="cls-1" points="76.18 75.43 72.25 75.43 72.25 96.33 68.55 96.33 68.55 75.43 64.62 75.43 64.62 71.95 76.18 71.95 76.18 75.43"/><path class="cls-1" d="M111.12,116.54h-3.76l-.81-5.54h-4.07l-.8,5.54H98l4.22-24.39h4.7Zm-6.66-19.16L103,107.66h3.1l-1.5-10.28Z" transform="translate(-20.76 -20.21)"/><path class="cls-1" d="M130.2,97.28v.62l-3.55.35v-.9c0-1.4-.66-2.13-1.88-2.13s-1.88.73-1.88,2.13v.31c0,1.43.63,2.65,3.1,4.74,3.38,2.85,4.63,4.87,4.63,7.8v1.22c0,3.48-2.05,5.47-5.71,5.47s-5.71-2-5.71-5.47v-1.64l3.55-.35v1.75c0,1.53.7,2.29,2.09,2.29s2.09-.76,2.09-2.29v-.81c0-1.53-.73-2.75-3.2-4.84-3.38-2.85-4.53-4.88-4.53-7.73v-.52c0-3.49,2-5.47,5.5-5.47s5.5,2,5.5,5.47" transform="translate(-20.76 -20.21)"/><path class="cls-1" d="M144.66,116.54H140.9l-.81-5.54H136l-.8,5.54h-3.69l4.21-24.39h4.7ZM138,97.38l-1.49,10.28h3.1l-1.5-10.28Z" transform="translate(-20.76 -20.21)"/><polygon class="cls-1" points="130.24 92.85 136.4 92.85 136.4 96.33 126.54 96.33 126.54 71.95 130.24 71.95 130.24 92.85"/><path class="cls-1" d="M51,141.21a2.5,2.5,0,0,0,.55,1.17c.46.54,1,.61,1.42.26s.41-.73.15-1.46-.34-1.57.23-2.06a1.54,1.54,0,0,1,2.24.36,2.49,2.49,0,0,1,.57,1.07l-.55.23a2.12,2.12,0,0,0-.47-.94.88.88,0,0,0-1.27-.25c-.38.33-.36.74-.09,1.49.32.91.29,1.55-.31,2.06a1.61,1.61,0,0,1-2.39-.42,2.71,2.71,0,0,1-.63-1.26Z" transform="translate(-20.76 -20.21)"/><path class="cls-1" d="M56,145.48l-1.57.83-.52-.49,5-2.61.61.58-2.4,5.14-.53-.52.75-1.61Zm1.64.83.69-1.48c.16-.33.32-.62.48-.9h0q-.42.27-.87.51l-1.45.76Z" transform="translate(-20.76 -20.21)"/><polygon class="cls-1" points="41.66 126.15 42.2 126.58 39.24 130.33 41.04 131.75 40.68 132.21 38.34 130.36 41.66 126.15"/><path class="cls-1" d="M68.89,151.1a9.18,9.18,0,0,1,1.33.63,3.09,3.09,0,0,1,1.57,1.66,2.47,2.47,0,0,1-.3,2.05,2.82,2.82,0,0,1-1.7,1.43,3.29,3.29,0,0,1-2.45-.5c-.43-.24-.77-.47-1.06-.67Zm-1.74,4.47a3.18,3.18,0,0,0,.59.38,2.06,2.06,0,0,0,3.11-.85,1.91,1.91,0,0,0-.87-2.87,3.39,3.39,0,0,0-.74-.34Z" transform="translate(-20.76 -20.21)"/><polygon class="cls-1" points="55.32 137.67 53.41 136.82 52.63 138.59 54.76 139.53 54.52 140.07 51.76 138.84 53.94 133.94 56.59 135.11 56.35 135.64 54.34 134.75 53.65 136.3 55.56 137.14 55.32 137.67"/><path class="cls-1" d="M86.07,160.84a2.53,2.53,0,0,1-3.14,2.09,2.47,2.47,0,0,1-1.63-3.26,2.55,2.55,0,0,1,3.14-2.08,2.45,2.45,0,0,1,1.63,3.25m-4-1a1.92,1.92,0,0,0,1.09,2.54c1.07.28,1.93-.53,2.24-1.71a1.92,1.92,0,0,0-1.09-2.55c-1.11-.3-1.94.58-2.24,1.72" transform="translate(-20.76 -20.21)"/><path class="cls-1" d="M88.84,158.76a6.47,6.47,0,0,1,1.33.1,2.18,2.18,0,0,1,1.47.67,1.35,1.35,0,0,1,.26,1.07,1.42,1.42,0,0,1-1.21,1.2v0A1.34,1.34,0,0,1,91.3,163a7.7,7.7,0,0,0,.18,1.52l-.71-.11a7.46,7.46,0,0,1-.16-1.32c0-.76-.28-1.08-.9-1.2l-.64-.1-.36,2.3L88,164Zm.31,2.52.7.11a1,1,0,0,0,1.35-.82c.11-.68-.34-1.06-1.06-1.18a2.62,2.62,0,0,0-.69,0Z" transform="translate(-20.76 -20.21)"/><rect class="cls-1" x="91.81" y="161.75" width="5.38" height="0.69" transform="translate(-95.27 223.4) rotate(-85.51)"/><path class="cls-1" d="M101.66,164.71A4.89,4.89,0,0,1,100,165a2.53,2.53,0,0,1-2.8-2.67,2.69,2.69,0,0,1,2.87-2.81,3.12,3.12,0,0,1,1.34.22l-.16.57a2.82,2.82,0,0,0-1.19-.21,2,2,0,0,0-2.13,2.19,2,2,0,0,0,2.11,2.14,2.36,2.36,0,0,0,.92-.16l0-1.6H99.86v-.55l1.77,0Z" transform="translate(-20.76 -20.21)"/><polygon class="cls-1" points="86.21 141.79 84.13 142 84.33 143.93 86.64 143.69 86.7 144.27 83.7 144.58 83.15 139.24 86.04 138.94 86.1 139.52 83.9 139.75 84.07 141.43 86.15 141.22 86.21 141.79"/><path class="cls-1" d="M110.12,164.1,109,158.84l.74-.15L112,161a14.94,14.94,0,0,1,1.3,1.52h0c-.21-.69-.35-1.33-.52-2.15l-.45-2.2L113,158l1.08,5.26-.69.14-2.22-2.33a16.82,16.82,0,0,1-1.34-1.55h0c.17.66.32,1.28.5,2.16l.46,2.25Z" transform="translate(-20.76 -20.21)"/><path class="cls-1" d="M123.56,157.65c-.31-.68-.69-1.5-.93-2.13h0c.06.65.1,1.36.12,2.15l.08,2.77-.49.19-1.75-2.06c-.51-.61-1-1.17-1.34-1.71h0c.23.63.53,1.48.78,2.24l.71,2.2-.61.24-1.63-5.13.82-.33,1.81,2.08c.45.53.84,1,1.17,1.49l0,0c-.07-.55-.11-1.17-.14-1.88l-.07-2.77.83-.33,2.29,4.87-.63.25Z" transform="translate(-20.76 -20.21)"/><path class="cls-1" d="M127.69,156.4l.31,1.75-.63.34-1-5.59.74-.4,4.17,3.86-.66.35-1.3-1.22Zm1.29-1.31L127.79,154c-.28-.26-.5-.5-.72-.73h0c.08.32.16.65.22,1l.28,1.61Z" transform="translate(-20.76 -20.21)"/><path class="cls-1" d="M130.53,150.61a8.21,8.21,0,0,1,1-.83,2.26,2.26,0,0,1,1.53-.51,1.35,1.35,0,0,1,.92.61,1.4,1.4,0,0,1-.07,1.7l0,0a1.33,1.33,0,0,1,1.25.46,9.07,9.07,0,0,0,1.17,1l-.59.4a7.66,7.66,0,0,1-1-.86c-.54-.53-.94-.6-1.47-.27l-.54.37,1.3,1.93-.57.38Zm1.95,1.64.58-.39a1.06,1.06,0,0,0,.44-1.52c-.39-.58-1-.55-1.59-.15a2.61,2.61,0,0,0-.53.44Z" transform="translate(-20.76 -20.21)"/><polygon class="cls-1" points="114.81 126.67 118.15 130.87 117.61 131.31 114.27 127.1 114.81 126.67"/><path class="cls-1" d="M141.16,149.23l-3.67-3.91.55-.52,3.11.81a13.73,13.73,0,0,1,1.9.61v0c-.54-.48-1-.94-1.57-1.55L140,143l.48-.45,3.67,3.92-.51.48-3.11-.82a17.33,17.33,0,0,1-2-.62v0c.49.47,1,.92,1.56,1.58l1.57,1.67Z" transform="translate(-20.76 -20.21)"/><path class="cls-1" d="M147.1,139a2.51,2.51,0,0,1,.54,3.73,2.46,2.46,0,0,1-3.64.08,2.55,2.55,0,0,1-.53-3.73,2.43,2.43,0,0,1,3.63-.08m-2.63,3.23a1.92,1.92,0,0,0,2.77.1c.71-.84.34-2-.59-2.75a1.92,1.92,0,0,0-2.77-.11c-.75.87-.31,2,.59,2.76" transform="translate(-20.76 -20.21)"/><line class="cls-2" x1="8.58" y1="67.62" x2="151.56" y2="67.62"/><line class="cls-3" x1="8.58" y1="67.62" x2="151.56" y2="67.62"/><line class="cls-2" x1="8.59" y1="101.11" x2="151.56" y2="101.11"/><line class="cls-3" x1="8.59" y1="101.11" x2="151.56" y2="101.11"/><path class="cls-1" d="M83.44,45.82a2.2,2.2,0,0,1,2.79.07l-.39.13a2.4,2.4,0,0,1,.7-1.33,1.09,1.09,0,0,1,1.38-.08,1,1,0,0,0-1.22.24,2.07,2.07,0,0,0-.41,1.24.22.22,0,0,1-.38.13h0a2,2,0,0,0-2.46-.39" transform="translate(-20.76 -20.21)"/><path class="cls-1" d="M87.49,41.8a2.47,2.47,0,0,1,2.93.5l-.36.07a3.7,3.7,0,0,1,.64-1.14,1.44,1.44,0,0,1,1.19-.52,1.67,1.67,0,0,0-.93.73,6.79,6.79,0,0,0-.49,1.09.21.21,0,0,1-.27.14l-.08-.05h0a3.11,3.11,0,0,0-2.62-.81" transform="translate(-20.76 -20.21)"/><path class="cls-1" d="M82.76,79.24C86,79,89.32,79,92.6,79s6.56.23,9.84.09c6.56-.21,13.12-.24,19.67.13a0,0,0,0,1,0,0,0,0,0,0,1,0,0c-6.55.37-13.11.35-19.67.14-3.28-.14-6.56,0-9.84.08s-6.56,0-9.84-.22c0,0,0,0,0,0s0,0,0,0" transform="translate(-20.76 -20.21)"/><path class="cls-1" d="M76.39,80.54c3.42-.21,6.85-.27,10.27-.23s6.85.23,10.28.09c6.85-.21,13.7-.23,20.54.14a0,0,0,0,1,0,0,0,0,0,0,1,0,0c-6.84.37-13.69.34-20.54.13-3.43-.14-6.85,0-10.28.09s-6.85,0-10.27-.22c0,0,0,0,0,0s0,0,0,0" transform="translate(-20.76 -20.21)"/><path class="cls-1" d="M82.25,81.83a47.07,47.07,0,0,1,6-.22c1,0,2,.13,3,.15s2,0,3-.07a83,83,0,0,1,12.11.14,0,0,0,0,1,0,.06A83,83,0,0,1,94.35,82c-1-.06-2-.09-3-.07s-2,.11-3,.15a47.07,47.07,0,0,1-6-.22,0,0,0,0,1,0,0,0,0,0,0,1,0,0" transform="translate(-20.76 -20.21)"/><path class="cls-1" d="M99.57,73.71h-.24a.21.21,0,0,1-.22-.21V33.81a.21.21,0,0,1,.22-.21h.24a.21.21,0,0,1,.21.21V73.5a.21.21,0,0,1-.21.21" transform="translate(-20.76 -20.21)"/><path class="cls-1" d="M99.57,73.73a1.15,1.15,0,0,1-.32,0,.25.25,0,0,1-.16-.27v-1.9l0-2.54,0-5.07c0-3.39-.07-6.77,0-10.16l.06-10.15V33.78a.32.32,0,0,1,.3-.27,1.39,1.39,0,0,1,.34,0,.33.33,0,0,1,.2.34v1.9l0,2.54,0,5.08V53.54c0,3.38,0,6.76-.05,10.15l0,5.07,0,2.54v2.22a.24.24,0,0,1-.23.21m0,0c.25,0,.19-.31.19-.5V71.3l0-2.54,0-5.07c0-3.39-.07-6.77,0-10.15V43.39l0-5.08,0-2.54v-1.9c0-.21-.14-.2-.37-.19a.14.14,0,0,0-.14.12v9.82l.06,10.15c0,3.39,0,6.77,0,10.16l0,5.07v4.44a.21.21,0,0,0,.13.24,1.56,1.56,0,0,0,.31,0" transform="translate(-20.76 -20.21)"/><line class="cls-1" x1="59.32" y1="55.93" x2="78.35" y2="15.76"/><path class="cls-1" d="M80.07,76.14c.74-1.7,1.52-3.38,2.3-5.06s1.54-3.37,2.37-5c1.62-3.33,3.25-6.65,4.78-10S92.64,49.3,94.22,46s3.22-6.67,4.88-10l0,0c-1.52,3.38-3,6.75-4.64,10.1s-3.18,6.69-4.82,10-3.18,6.69-4.73,10.06c-.76,1.69-1.58,3.35-2.39,5s-1.61,3.34-2.46,5Z" transform="translate(-20.76 -20.21)"/><path class="cls-1" d="M99.94,39c2.86,6,5.42,12.22,8,18.4q3.22,7.76,6.44,15.52" transform="translate(-20.76 -20.21)"/><path class="cls-1" d="M100,39c.7,1.36,1.36,2.75,2,4.15s1.29,2.79,1.87,4.21c1.18,2.84,2.31,5.7,3.55,8.51s2.4,5.65,3.58,8.49,2.31,5.69,3.41,8.56h0c-1.25-2.81-2.47-5.62-3.65-8.46s-2.34-5.68-3.47-8.54-2.35-5.67-3.6-8.48L99.93,39Z" transform="translate(-20.76 -20.21)"/><path class="cls-1" d="M99.8,35.5q9.63,18.57,18.09,37.74" transform="translate(-20.76 -20.21)"/><path class="cls-1" d="M99.81,35.49c.85,1.52,1.66,3.07,2.47,4.61s1.61,3.1,2.36,4.67c1.53,3.14,3,6.3,4.57,9.42s3.05,6.28,4.51,9.45,2.85,6.37,4.18,9.59h0l-4.41-9.48-4.39-9.5c-1.46-3.17-3-6.28-4.63-9.39-.81-1.54-1.57-3.11-2.34-4.67s-1.56-3.12-2.32-4.7Z" transform="translate(-20.76 -20.21)"/><path class="cls-1" d="M99.11,40.89c-6.83,16-12.2,29.45-12.2,29.45a13.34,13.34,0,0,1,8.87-.46,4.73,4.73,0,0,1,2.6,1.66Z" transform="translate(-20.76 -20.21)"/><path class="cls-4" d="M99.11,40.89c-6.83,16-12.2,29.45-12.2,29.45a13.34,13.34,0,0,1,8.87-.46,4.73,4.73,0,0,1,2.6,1.66Z" transform="translate(-20.76 -20.21)"/><path class="cls-1" d="M99.28,72.32l-14-1.58a.14.14,0,0,1-.12-.14l0-.22a.13.13,0,0,1,.14-.12l14,1.58a.13.13,0,0,1,.12.14l0,.22a.14.14,0,0,1-.15.12" transform="translate(-20.76 -20.21)"/><path class="cls-1" d="M99.28,72.33c-2.45-.27-4.91-.38-7.35-.71l-3.67-.48c-.6-.09-1.22-.15-1.83-.2l-.92-.1-.23,0s-.24,0-.24-.18a1.81,1.81,0,0,1,0-.25.22.22,0,0,1,.23-.21c2.46.23,4.91.46,7.35.75,1.23.13,2.44.31,3.66.48l1.83.25.92.12.23,0a.17.17,0,0,1,.19.14c0,.08,0,.15,0,.23a.15.15,0,0,1-.17.15m0,0c.17,0,.13-.23.15-.35s-.25-.08-.39-.12l-.92-.09-1.84-.15c-1.22-.1-2.45-.21-3.67-.35-2.45-.26-4.89-.58-7.33-.9,0,0-.06,0-.07.07l0,.21c0,.07.19,0,.34.08l.91.12c.61.08,1.22.15,1.84.21l3.67.34c2.46.22,4.89.66,7.33.93" transform="translate(-20.76 -20.21)"/><path class="cls-1" d="M85.17,70.71a3.09,3.09,0,0,0,2.34,1.4,6,6,0,0,0,4.1-.64,3.51,3.51,0,0,0,2.19,1.44,8.15,8.15,0,0,0,5.58-.57" transform="translate(-20.76 -20.21)"/><path class="cls-1" d="M85.18,70.7a2.64,2.64,0,0,0,1.35,1,6.52,6.52,0,0,0,1.69.35A7.24,7.24,0,0,0,90,72a4.17,4.17,0,0,0,1.62-.62l0,0,0,.06a3,3,0,0,0,1.62,1.18,8.1,8.1,0,0,0,2,.38,10.19,10.19,0,0,0,2.06-.09,9.48,9.48,0,0,0,2-.57l0,0a7.5,7.5,0,0,1-4.1.94,6.8,6.8,0,0,1-2.09-.45,3.3,3.3,0,0,1-1.64-1.35l.09,0a6.78,6.78,0,0,1-1.67.64,5.91,5.91,0,0,1-1.78.16,5.05,5.05,0,0,1-1.75-.39,2.37,2.37,0,0,1-1.29-1.22Z" transform="translate(-20.76 -20.21)"/><path class="cls-1" d="M102.23,48.05a24.35,24.35,0,0,1-.2,18.56,13.91,13.91,0,0,0,9.61,4.54,242.74,242.74,0,0,0-9.41-23.1" transform="translate(-20.76 -20.21)"/><path class="cls-1" d="M102.24,48.06a20.1,20.1,0,0,1,1.4,4.54,23.67,23.67,0,0,1,.45,4.75,23.39,23.39,0,0,1-2,9.29v-.08a13.22,13.22,0,0,0,4.33,3.22,13.41,13.41,0,0,0,5.24,1.27l-.11.14c-1.4-3.91-2.87-7.81-4.45-11.65-.8-1.92-1.56-3.86-2.38-5.76Zm0,0c.43.9,1,1.87,1.38,2.81l1.29,2.84c.85,1.91,1.7,3.81,2.47,5.74,1.56,3.86,3.08,7.74,4.38,11.69l.05.15h-.15a13.81,13.81,0,0,1-5.28-1.37A15.17,15.17,0,0,1,102,66.66l0,0,0,0a25.37,25.37,0,0,0,1.52-13.95A27.92,27.92,0,0,0,102.22,48" transform="translate(-20.76 -20.21)"/><path class="cls-1" d="M99.91,42.81c4.57,9.84,9.15,19.92,12.35,30.28" transform="translate(-20.76 -20.21)"/><path class="cls-1" d="M99.93,42.81q1.86,3.64,3.51,7.39c1.06,2.51,2.12,5,3.23,7.52s2.15,5,3.09,7.58,1.79,5.16,2.51,7.79h0c-.89-2.58-1.82-5.15-2.78-7.69s-1.94-5.1-3-7.63-2.13-5-3.31-7.48-2.25-5-3.31-7.48Z" transform="translate(-20.76 -20.21)"/><path class="cls-1" d="M99.88,52.58q1.91,4.26,3.83,8.51c.33.73.66,1.46,1,2.19.78,1.85,1.45,3.74,2.12,5.64l1.53,4.31" transform="translate(-20.76 -20.21)"/><path class="cls-1" d="M99.89,52.58c.86,1.65,1.65,3.34,2.39,5s1.45,3.43,2.24,5.11,1.42,3.45,2.07,5.19c.34.87.62,1.76.91,2.64s.58,1.77.85,2.66h0c-.71-1.72-1.35-3.47-2-5.2s-1.25-3.5-1.93-5.23-1.49-3.41-2.31-5.08-1.52-3.39-2.2-5.13Z" transform="translate(-20.76 -20.21)"/><path class="cls-1" d="M108.18,72.64a6.49,6.49,0,0,1-1.66.5,10,10,0,0,1-6.71-1.28,27.19,27.19,0,0,0,2-14.84,155.64,155.64,0,0,1,6.34,15.62" transform="translate(-20.76 -20.21)"/><path class="cls-1" d="M108.19,72.65a8,8,0,0,1-4.29.66A10.19,10.19,0,0,1,99.75,72l-.1-.06,0-.11a27.48,27.48,0,0,0,2.13-7.23,26.38,26.38,0,0,0-.11-7.53l-.14-.86L102,57c1.22,2.53,2.33,5.12,3.4,7.72.52,1.31,1,2.63,1.49,4s.93,2.67,1.34,4m0,0-1.49-3.93c-.51-1.31-1-2.61-1.59-3.91q-1.58-3.9-3.35-7.73L102,57a27.56,27.56,0,0,1-.06,7.59,26.75,26.75,0,0,1-2,7.32l-.05-.17a11.86,11.86,0,0,0,2,.9,10.05,10.05,0,0,0,2.09.48,9.75,9.75,0,0,0,2.16,0,7.26,7.26,0,0,0,2.08-.49" transform="translate(-20.76 -20.21)"/><path class="cls-1" d="M101.88,56.84c.65,1.32,1.25,2.66,1.83,4l1.7,4.07c.56,1.35,1.08,2.73,1.56,4.12s.94,2.78,1.37,4.19h0c-.55-1.36-1.08-2.73-1.58-4.11L105.29,65a40,40,0,0,0-1.76-4c-.59-1.35-1.15-2.7-1.67-4.08h0s0,0,0,0" transform="translate(-20.76 -20.21)"/><path class="cls-2" d="M102.34,65.26a12.53,12.53,0,0,1-1.33,6.5" transform="translate(-20.76 -20.21)"/><path class="cls-2" d="M102.34,65.26a9.32,9.32,0,0,1-.08,3.37A9.6,9.6,0,0,1,101,71.76a20.15,20.15,0,0,0,1-3.19,18.14,18.14,0,0,0,.37-3.31" transform="translate(-20.76 -20.21)"/><path class="cls-2" d="M103.09,65.88a9.9,9.9,0,0,1-1.32,5.61" transform="translate(-20.76 -20.21)"/><path class="cls-2" d="M103.09,65.88a7.28,7.28,0,0,1-.1,2.94,7.38,7.38,0,0,1-1.22,2.67,16.09,16.09,0,0,0,.93-2.74,15.14,15.14,0,0,0,.39-2.87" transform="translate(-20.76 -20.21)"/><path class="cls-2" d="M103.83,66.79a11.61,11.61,0,0,1-1,4.63" transform="translate(-20.76 -20.21)"/><path class="cls-2" d="M103.83,66.79a4.43,4.43,0,0,1,.08,1.21,9.51,9.51,0,0,1-.19,1.19,10.28,10.28,0,0,1-.89,2.23c.16-.79.42-1.54.6-2.3a12.9,12.9,0,0,0,.4-2.33" transform="translate(-20.76 -20.21)"/><path class="cls-2" d="M104.69,67.67a13.06,13.06,0,0,1-1.22,4" transform="translate(-20.76 -20.21)"/><path class="cls-2" d="M104.69,67.67a6.74,6.74,0,0,1-.31,2.09,6.66,6.66,0,0,1-.91,1.9c.19-.68.44-1.32.63-2s.38-1.33.59-2" transform="translate(-20.76 -20.21)"/><path class="cls-2" d="M105.2,68.57a5.31,5.31,0,0,1-.94,3" transform="translate(-20.76 -20.21)"/><path class="cls-2" d="M105.2,68.57a3.23,3.23,0,0,1-.1,1.63,3.39,3.39,0,0,1-.84,1.41c.2-.52.42-1,.56-1.5a14.44,14.44,0,0,0,.38-1.54" transform="translate(-20.76 -20.21)"/><path class="cls-2" d="M105.78,69.3a3.78,3.78,0,0,1-.48,2.24" transform="translate(-20.76 -20.21)"/><path class="cls-2" d="M105.78,69.3a2,2,0,0,1,.08,1.19,2.05,2.05,0,0,1-.57,1.05c.09-.4.21-.74.28-1.11s.13-.73.21-1.13" transform="translate(-20.76 -20.21)"/><path class="cls-2" d="M106.55,70.17a2.57,2.57,0,0,1-.15,1" transform="translate(-20.76 -20.21)"/><path class="cls-2" d="M106.55,70.17a.73.73,0,0,1,.12.53.69.69,0,0,1-.27.46,1.27,1.27,0,0,1,0-.51,1.46,1.46,0,0,1,.17-.48" transform="translate(-20.76 -20.21)"/><path class="cls-2" d="M104.75,55.68a9.3,9.3,0,0,1-.33,5" transform="translate(-20.76 -20.21)"/><path class="cls-2" d="M104.75,55.68a6.46,6.46,0,0,1,.32,2.51,6.28,6.28,0,0,1-.65,2.45,16.14,16.14,0,0,0,.35-2.47,16,16,0,0,0,0-2.49" transform="translate(-20.76 -20.21)"/><path class="cls-2" d="M105.44,57.26a7.07,7.07,0,0,1-.68,4" transform="translate(-20.76 -20.21)"/><path class="cls-2" d="M105.44,57.26a4.71,4.71,0,0,1,.1,2.08,4.62,4.62,0,0,1-.78,1.92,15.32,15.32,0,0,0,.49-2,16.63,16.63,0,0,0,.19-2" transform="translate(-20.76 -20.21)"/><path class="cls-1" d="M106.1,59.14a5.19,5.19,0,0,1-.62,2.59,13.57,13.57,0,0,0,.62-2.59" transform="translate(-20.76 -20.21)"/><path class="cls-2" d="M106.56,60.52a5.84,5.84,0,0,1-.59,2.12" transform="translate(-20.76 -20.21)"/><path class="cls-2" d="M106.56,60.52a2.54,2.54,0,0,1,0,1.13,2.6,2.6,0,0,1-.54,1c0-.38.17-.72.25-1.07a8.54,8.54,0,0,1,.34-1" transform="translate(-20.76 -20.21)"/><path class="cls-2" d="M107,61.73a3.72,3.72,0,0,1-.52,1.65" transform="translate(-20.76 -20.21)"/><path class="cls-2" d="M107,61.73a1.62,1.62,0,0,1,0,.9,1.58,1.58,0,0,1-.5.75,6.44,6.44,0,0,1,.21-.84c.11-.27.17-.54.31-.81" transform="translate(-20.76 -20.21)"/><path class="cls-2" d="M107.39,62.72a5,5,0,0,1-.59,1.55" transform="translate(-20.76 -20.21)"/><path class="cls-2" d="M107.39,62.72a1.53,1.53,0,0,1-.09.85,1.65,1.65,0,0,1-.5.7,3.74,3.74,0,0,1,.22-.8,4.34,4.34,0,0,1,.37-.75" transform="translate(-20.76 -20.21)"/><path class="cls-2" d="M107.76,63.76a1.31,1.31,0,0,1-.41.93" transform="translate(-20.76 -20.21)"/><path class="cls-2" d="M107.76,63.76a.61.61,0,0,1,0,.57.63.63,0,0,1-.43.36,3,3,0,0,1,.16-.48,3,3,0,0,1,.25-.45" transform="translate(-20.76 -20.21)"/><path class="cls-2" d="M92.46,61.93a35.5,35.5,0,0,1-2.17,6.35" transform="translate(-20.76 -20.21)"/><path class="cls-2" d="M92.46,61.93a18.32,18.32,0,0,1-2.17,6.35Z" transform="translate(-20.76 -20.21)"/><path class="cls-2" d="M93.69,60.85a58.6,58.6,0,0,1-2.5,7.77" transform="translate(-20.76 -20.21)"/><path class="cls-2" d="M93.69,60.85a28.32,28.32,0,0,1-2.5,7.77c.39-1.31.84-2.59,1.24-3.88s.82-2.6,1.26-3.89" transform="translate(-20.76 -20.21)"/><path class="cls-2" d="M94.68,60.36a39.1,39.1,0,0,1-2.42,8.1" transform="translate(-20.76 -20.21)"/><path class="cls-2" d="M94.68,60.36a22.64,22.64,0,0,1-.85,4.15,23.22,23.22,0,0,1-1.57,3.95c.43-1.35.9-2.68,1.29-4s.76-2.71,1.13-4.07" transform="translate(-20.76 -20.21)"/><path class="cls-2" d="M95.83,58.94a36.22,36.22,0,0,1-2.21,9.34" transform="translate(-20.76 -20.21)"/><path class="cls-2" d="M95.83,58.94a24.77,24.77,0,0,1-.65,4.77,24.39,24.39,0,0,1-1.56,4.57c.46-1.54.92-3.07,1.27-4.63s.66-3.13.94-4.71" transform="translate(-20.76 -20.21)"/><path class="cls-2" d="M97,58.18a50.16,50.16,0,0,1-1.82,10.09" transform="translate(-20.76 -20.21)"/><path class="cls-2" d="M97,58.18a31.38,31.38,0,0,1-.5,5.12,32.79,32.79,0,0,1-1.32,5c.35-1.68.74-3.34,1-5s.55-3.36.8-5.06" transform="translate(-20.76 -20.21)"/><path class="cls-2" d="M97.5,61.93a43.24,43.24,0,0,1-1.29,6.58" transform="translate(-20.76 -20.21)"/><path class="cls-2" d="M97.5,61.93a20.94,20.94,0,0,1-.37,3.35,20.16,20.16,0,0,1-.92,3.23c.18-1.11.43-2.19.62-3.29s.42-2.19.67-3.29" transform="translate(-20.76 -20.21)"/><path class="cls-2" d="M96.18,51.35a15.41,15.41,0,0,1-.47,2.7" transform="translate(-20.76 -20.21)"/><path class="cls-2" d="M96.18,51.35a4.32,4.32,0,0,1,0,1.39,4.14,4.14,0,0,1-.44,1.31,10.1,10.1,0,0,1,.15-1.36,9,9,0,0,1,.32-1.34" transform="translate(-20.76 -20.21)"/><path class="cls-2" d="M96.92,50.47a17.19,17.19,0,0,1-.44,3.58" transform="translate(-20.76 -20.21)"/><path class="cls-2" d="M96.92,50.47a6.53,6.53,0,0,1,0,1.82,6.35,6.35,0,0,1-.46,1.76c0-.61.11-1.2.17-1.8s.14-1.18.27-1.78" transform="translate(-20.76 -20.21)"/><path class="cls-2" d="M97.76,49.35a16,16,0,0,1-.5,4.62" transform="translate(-20.76 -20.21)"/><path class="cls-2" d="M97.75,49.35A8.74,8.74,0,0,1,97.26,54c.08-.79.2-1.55.27-2.32s.13-1.53.22-2.31" transform="translate(-20.76 -20.21)"/><path class="cls-1" d="M79.61,72.47a22.55,22.55,0,0,0,1,3.52" transform="translate(-20.76 -20.21)"/><path class="cls-4" d="M79.61,72.47a22.55,22.55,0,0,0,1,3.52" transform="translate(-20.76 -20.21)"/><path class="cls-1" d="M77.07,74.1c0,.06.1.09.17.1a9.33,9.33,0,0,0,2.84.08c-.2-.56-.4-1.11-.59-1.66-.8.52-1.6,1-2.42,1.48" transform="translate(-20.76 -20.21)"/><path class="cls-4" d="M77.07,74.1c0,.06.1.09.17.1a9.33,9.33,0,0,0,2.84.08c-.2-.56-.4-1.11-.59-1.66C78.69,73.14,77.89,73.63,77.07,74.1Z" transform="translate(-20.76 -20.21)"/><path class="cls-5" d="M78.39,73.75c.42-.23.82-.44,1.25-.64a2.5,2.5,0,0,1-1.25.64" transform="translate(-20.76 -20.21)"/><path class="cls-5" d="M78.88,74c.31-.16.59-.3.88-.47a1.13,1.13,0,0,1-.88.47" transform="translate(-20.76 -20.21)"/><path class="cls-1" d="M120.18,73.59c-2.25.68-3.72,2.78-5.13,4.66a1.75,1.75,0,0,1-.61.57,1.71,1.71,0,0,1-.78.09,181.75,181.75,0,0,0-27.5.92,10.8,10.8,0,0,1-2.84,0c-.18-.32-.37-.64-.56-1-.28-.48-.61-1-1.14-1.14a3.33,3.33,0,0,0-.54-.07,2.11,2.11,0,0,1-1.69-1.39A206.31,206.31,0,0,1,113.9,73.1a24.88,24.88,0,0,1,6.28.49" transform="translate(-20.76 -20.21)"/><path class="cls-6" d="M82.25,77.11q5.06-.84,10.15-1.41" transform="translate(-20.76 -20.21)"/><path class="cls-6" d="M83.65,77.52q4.91-.54,9.78-1.35" transform="translate(-20.76 -20.21)"/><path class="cls-6" d="M84.48,78.16l9.62-1.44" transform="translate(-20.76 -20.21)"/><path class="cls-6" d="M85.52,78.58c3.16-.59,6.36-1,9.56-1.32" transform="translate(-20.76 -20.21)"/><path class="cls-6" d="M87.51,78.8l6.31-.7" transform="translate(-20.76 -20.21)"/><path class="cls-6" d="M101.52,78a78.6,78.6,0,0,1,12.18-.17" transform="translate(-20.76 -20.21)"/><path class="cls-6" d="M109,76.93a47.64,47.64,0,0,1,5.21.14" transform="translate(-20.76 -20.21)"/><path class="cls-6" d="M111.13,76.41a20.74,20.74,0,0,1,3.25,0" transform="translate(-20.76 -20.21)"/><path class="cls-7" d="M80.92,76.57a144.15,144.15,0,0,1,36.56-2.37" transform="translate(-20.76 -20.21)"/><path class="cls-1" d="M117.25,49.77a2,2,0,0,1,2.5.19h0l-.4.1a2.18,2.18,0,0,1,.71-1.15,1,1,0,0,1,1.23,0,.84.84,0,0,0-1.08.16,1.86,1.86,0,0,0-.41,1.08.22.22,0,0,1-.24.19.28.28,0,0,1-.15-.08h0a1.75,1.75,0,0,0-2.15-.49" transform="translate(-20.76 -20.21)"/><path class="cls-1" d="M109.76,48.17a1.43,1.43,0,0,1,1.82.1h0l-.39.1a1.63,1.63,0,0,1,.54-.83.71.71,0,0,1,.91,0,.6.6,0,0,0-.76.14,1.3,1.3,0,0,0-.24.76.22.22,0,0,1-.24.19.2.2,0,0,1-.15-.08h0a1.21,1.21,0,0,0-1.48-.4" transform="translate(-20.76 -20.21)"/><path class="cls-1" d="M114.57,53.82a2.19,2.19,0,0,1,2.61.58l-.37.05a3.07,3.07,0,0,1,.64-1,1.21,1.21,0,0,1,1.09-.4,1.51,1.51,0,0,0-.84.61,5.31,5.31,0,0,0-.49,1,.22.22,0,0,1-.28.13l-.08-.06h0a2.85,2.85,0,0,0-2.27-.87" transform="translate(-20.76 -20.21)"/><path class="cls-1" d="M80.82,79.23c4-.21,8-.27,11.94-.22s8,.22,11.94.08c8-.21,15.92-.23,23.88.14a0,0,0,0,1,0,0,0,0,0,0,1,0,0c-8,.37-15.92.34-23.88.13-4-.13-8,0-11.94.09s-8,0-11.94-.22l0,0a0,0,0,0,1,0,0" transform="translate(-20.76 -20.21)"/><path class="cls-1" d="M73.09,80.8c4.15-.21,8.31-.27,12.47-.22s8.31.22,12.46.08c8.32-.21,16.63-.23,24.94.14a0,0,0,0,1,0,.06c-8.31.37-16.62.34-24.94.13-4.15-.13-8.31,0-12.46.09s-8.32,0-12.47-.22a0,0,0,0,1,0,0,0,0,0,0,1,0,0" transform="translate(-20.76 -20.21)"/><path class="cls-1" d="M80.2,82.37a71.9,71.9,0,0,1,7.34-.23,66.76,66.76,0,0,0,7.35.09c2.45-.11,4.89-.17,7.34-.15s4.9.1,7.35.29a0,0,0,0,1,0,0,0,0,0,0,1,0,0q-3.67.27-7.35.28c-2.45,0-4.89,0-7.34-.15a66.76,66.76,0,0,0-7.35.09c-2.45,0-4.9,0-7.34-.22,0,0,0,0,0,0s0,0,0,0" transform="translate(-20.76 -20.21)"/><path class="cls-1" d="M100.35,174.48a74.9,74.9,0,1,1,74.9-74.89,75,75,0,0,1-74.9,74.89m0-146.11a71.22,71.22,0,1,0,71.22,71.22,71.3,71.3,0,0,0-71.22-71.22" transform="translate(-20.76 -20.21)"/><path class="cls-2" d="M104.06,29.2a10.33,10.33,0,0,0-7.92-4.37V23.61a11.33,11.33,0,0,1,8.93,4.91Z" transform="translate(-20.76 -20.21)"/><path class="cls-2" d="M91.78,29.61a10.38,10.38,0,0,0-8.55-2.93L83,25.48a11.34,11.34,0,0,1,9.65,3.29Z" transform="translate(-20.76 -20.21)"/><path class="cls-2" d="M79.77,32.15a10.31,10.31,0,0,0-8.93-1.4l-.42-1.15a11.38,11.38,0,0,1,10.07,1.56Z" transform="translate(-20.76 -20.21)"/><path class="cls-2" d="M68.38,36.73a10.29,10.29,0,0,0-9,.18l-.61-1.06a11.36,11.36,0,0,1,10.19-.22Z" transform="translate(-20.76 -20.21)"/><path class="cls-2" d="M58,43.23A10.33,10.33,0,0,0,49.08,45L48.3,44a11.35,11.35,0,0,1,10-2Z" transform="translate(-20.76 -20.21)"/><path class="cls-2" d="M48.82,51.43a10.28,10.28,0,0,0-8.43,3.26l-.94-.79A11.35,11.35,0,0,1,49,50.21Z" transform="translate(-20.76 -20.21)"/><path class="cls-2" d="M41.24,61.1a10.26,10.26,0,0,0-7.73,4.67l-1.07-.62a11.38,11.38,0,0,1,8.72-5.27Z" transform="translate(-20.76 -20.21)"/><path class="cls-2" d="M35.46,71.93a10.36,10.36,0,0,0-6.81,5.94l-1.15-.42a11.38,11.38,0,0,1,7.67-6.71Z" transform="translate(-20.76 -20.21)"/><path class="cls-2" d="M31.65,83.61a10.29,10.29,0,0,0-5.67,7l-1.21-.21a11.37,11.37,0,0,1,6.39-7.94Z" transform="translate(-20.76 -20.21)"/><path class="cls-2" d="M29.93,95.77a10.31,10.31,0,0,0-4.37,7.91H24.33a11.38,11.38,0,0,1,4.92-8.93Z" transform="translate(-20.76 -20.21)"/><path class="cls-2" d="M30.34,108a10.3,10.3,0,0,0-2.93,8.55l-1.2.21a11.36,11.36,0,0,1,3.28-9.65Z" transform="translate(-20.76 -20.21)"/><path class="cls-2" d="M32.88,120.05a10.31,10.31,0,0,0-1.4,8.93l-1.15.42a11.34,11.34,0,0,1,1.56-10.07Z" transform="translate(-20.76 -20.21)"/><path class="cls-2" d="M37.46,131.45a10.27,10.27,0,0,0,.18,9l-1.06.61a11.34,11.34,0,0,1-.21-10.19Z" transform="translate(-20.76 -20.21)"/><path class="cls-2" d="M44,141.87a10.29,10.29,0,0,0,1.74,8.87l-.94.78a11.34,11.34,0,0,1-2-10Z" transform="translate(-20.76 -20.21)"/><path class="cls-2" d="M52.16,151a10.36,10.36,0,0,0,3.25,8.43l-.78.94a11.38,11.38,0,0,1-3.69-9.51Z" transform="translate(-20.76 -20.21)"/><path class="cls-2" d="M61.83,158.58a10.32,10.32,0,0,0,4.67,7.74l-.62,1.06a11.38,11.38,0,0,1-5.27-8.72Z" transform="translate(-20.76 -20.21)"/><path class="cls-2" d="M72.66,164.36a10.36,10.36,0,0,0,5.94,6.81l-.41,1.15a11.39,11.39,0,0,1-6.72-7.67Z" transform="translate(-20.76 -20.21)"/><path class="cls-2" d="M84.34,168.17a10.29,10.29,0,0,0,7,5.67l-.21,1.21a11.37,11.37,0,0,1-8-6.39Z" transform="translate(-20.76 -20.21)"/><path class="cls-2" d="M96.5,169.89a10.31,10.31,0,0,0,7.91,4.37v1.22a11.31,11.31,0,0,1-8.93-4.91Z" transform="translate(-20.76 -20.21)"/><path class="cls-2" d="M108.77,169.48a10.3,10.3,0,0,0,8.55,2.93l.21,1.2a11.32,11.32,0,0,1-9.65-3.28Z" transform="translate(-20.76 -20.21)"/><path class="cls-2" d="M120.78,166.94a10.31,10.31,0,0,0,8.93,1.4l.42,1.15a11.34,11.34,0,0,1-10.07-1.56Z" transform="translate(-20.76 -20.21)"/><path class="cls-2" d="M132.18,162.36a10.27,10.27,0,0,0,9-.18l.61,1.06a11.36,11.36,0,0,1-10.19.22Z" transform="translate(-20.76 -20.21)"/><path class="cls-2" d="M142.6,155.86a10.26,10.26,0,0,0,8.87-1.74l.78.94a11.34,11.34,0,0,1-10,2Z" transform="translate(-20.76 -20.21)"/><path class="cls-2" d="M151.73,147.66a10.37,10.37,0,0,0,8.44-3.25l.93.78a11.34,11.34,0,0,1-9.5,3.69Z" transform="translate(-20.76 -20.21)"/><path class="cls-2" d="M159.31,138a10.32,10.32,0,0,0,7.74-4.66l1.06.61a11.4,11.4,0,0,1-8.72,5.28Z" transform="translate(-20.76 -20.21)"/><path class="cls-2" d="M165.09,127.16a10.36,10.36,0,0,0,6.81-5.94l1.15.42a11.38,11.38,0,0,1-7.67,6.71Z" transform="translate(-20.76 -20.21)"/><path class="cls-2" d="M168.9,115.48a10.26,10.26,0,0,0,5.67-7l1.21.21a11.37,11.37,0,0,1-6.39,7.94Z" transform="translate(-20.76 -20.21)"/><path class="cls-2" d="M170.62,103.32A10.31,10.31,0,0,0,175,95.41h1.23a11.38,11.38,0,0,1-4.92,8.94Z" transform="translate(-20.76 -20.21)"/><path class="cls-2" d="M170.21,91.05a10.3,10.3,0,0,0,2.93-8.55l1.2-.21a11.35,11.35,0,0,1-3.28,9.65Z" transform="translate(-20.76 -20.21)"/><path class="cls-2" d="M167.67,79a10.31,10.31,0,0,0,1.4-8.93l1.15-.42a11.34,11.34,0,0,1-1.56,10.07Z" transform="translate(-20.76 -20.21)"/><path class="cls-2" d="M163.09,67.65a10.34,10.34,0,0,0-.17-9L164,58a11.41,11.41,0,0,1,.21,10.19Z" transform="translate(-20.76 -20.21)"/><path class="cls-2" d="M156.59,57.22a10.22,10.22,0,0,0-1.74-8.86l.94-.79a11.34,11.34,0,0,1,2,10Z" transform="translate(-20.76 -20.21)"/><path class="cls-2" d="M148.39,48.09a10.32,10.32,0,0,0-3.25-8.43l.78-.94a11.35,11.35,0,0,1,3.69,9.5Z" transform="translate(-20.76 -20.21)"/><path class="cls-2" d="M138.72,40.51a10.29,10.29,0,0,0-4.66-7.73l.61-1.07a11.38,11.38,0,0,1,5.27,8.72Z" transform="translate(-20.76 -20.21)"/><path class="cls-2" d="M127.89,34.73A10.36,10.36,0,0,0,122,27.92l.42-1.15a11.38,11.38,0,0,1,6.71,7.68Z" transform="translate(-20.76 -20.21)"/><path class="cls-2" d="M116.21,30.92a10.29,10.29,0,0,0-7-5.67l.21-1.21a11.4,11.4,0,0,1,8,6.39Z" transform="translate(-20.76 -20.21)"/><circle class="cls-3" cx="100.43" cy="99.87" r="78.67" transform="translate(-40.27 155.01) rotate(-76.98)"/><path class="cls-1" d="M69.26,134.59l-.56,1.7H68l1.84-5.41h.85l1.84,5.41h-.74l-.58-1.7ZM71,134l-.53-1.56c-.12-.35-.2-.67-.28-1h0c-.08.33-.17.65-.28,1L69.4,134Z" transform="translate(-20.76 -20.21)"/><polygon class="cls-1" points="53.98 110.67 54.68 110.67 54.68 115.49 56.99 115.49 56.99 116.08 53.98 116.08 53.98 110.67"/><polygon class="cls-1" points="59.53 111.26 57.89 111.26 57.89 110.67 61.89 110.67 61.89 111.26 60.24 111.26 60.24 116.08 59.53 116.08 59.53 111.26"/><path class="cls-1" d="M85,134.59l-.56,1.7h-.72l1.84-5.41h.84l1.85,5.41h-.75l-.58-1.7Zm1.78-.55-.53-1.56c-.12-.35-.2-.67-.28-1h0c-.08.33-.17.65-.27,1L85.12,134Z" transform="translate(-20.76 -20.21)"/><path class="cls-1" d="M97.38,136.11a3.41,3.41,0,0,1-1.43.26,2.53,2.53,0,0,1-2.67-2.74,2.69,2.69,0,0,1,2.83-2.84,2.83,2.83,0,0,1,1.28.24l-.17.57a2.49,2.49,0,0,0-1.09-.23A2,2,0,0,0,94,133.61a2,2,0,0,0,2.08,2.17,2.93,2.93,0,0,0,1.14-.22Z" transform="translate(-20.76 -20.21)"/><path class="cls-1" d="M100.61,134.59l-.57,1.7h-.72l1.84-5.41H102l1.85,5.41h-.75l-.57-1.7Zm1.77-.55-.53-1.56c-.12-.35-.2-.67-.28-1h0c-.08.33-.16.65-.27,1l-.53,1.57Z" transform="translate(-20.76 -20.21)"/><polygon class="cls-1" points="85.33 110.67 86.03 110.67 86.03 115.49 88.34 115.49 88.34 116.08 85.33 116.08 85.33 110.67"/><rect class="cls-1" x="90.56" y="110.67" width="0.7" height="5.41"/><path class="cls-1" d="M114.68,131a9.35,9.35,0,0,1,1.49-.11,3.1,3.1,0,0,1,2.19.67,2.5,2.5,0,0,1,.76,1.94,2.89,2.89,0,0,1-.77,2.11,3.39,3.39,0,0,1-2.4.78,11.25,11.25,0,0,1-1.27-.07Zm.7,4.78a3.72,3.72,0,0,0,.71,0,2.07,2.07,0,0,0,2.3-2.29,1.93,1.93,0,0,0-2.19-2.09,4.07,4.07,0,0,0-.82.07Z" transform="translate(-20.76 -20.21)"/><path class="cls-1" d="M122.24,134.59l-.57,1.7H121l1.84-5.41h.84l1.85,5.41h-.75l-.57-1.7ZM124,134l-.53-1.56c-.12-.35-.2-.67-.28-1h0c-.08.33-.16.65-.27,1l-.53,1.57Z" transform="translate(-20.76 -20.21)"/><path class="cls-1" d="M127.72,131a9.22,9.22,0,0,1,1.48-.11,3.13,3.13,0,0,1,2.2.67,2.5,2.5,0,0,1,.76,1.94,2.85,2.85,0,0,1-.78,2.11,3.36,3.36,0,0,1-2.39.78,11.11,11.11,0,0,1-1.27-.07Zm.7,4.78a3.56,3.56,0,0,0,.7,0,2.08,2.08,0,0,0,2.31-2.29,1.93,1.93,0,0,0-2.19-2.09,3.93,3.93,0,0,0-.82.07Z" transform="translate(-20.76 -20.21)"/></svg>