<svg id="Layer_1" data-name="Layer 1" xmlns="http://www.w3.org/2000/svg" viewBox="0 0 149.65 175.33">
  <defs>
    <style>
      .cls-1 {
        fill: #fff;
      }
    </style>
  </defs>
  <title>embutidos</title>
  <path class="cls-1" d="M47.82,45.68A16,16,0,0,0,42.88,45l.42-5.52a3.92,3.92,0,0,0-5.62-3.83l-10.24,5A3.92,3.92,0,0,0,27,47.36l4.21,2.81a15.7,15.7,0,0,0-3,17.49,106.05,106.05,0,0,1,0,88.43,15.68,15.68,0,0,0,3,17.48L27,176.38a3.92,3.92,0,0,0,.47,6.79l10.24,5a3.92,3.92,0,0,0,5.62-3.82l-.42-5.54a15.44,15.44,0,0,0,4.94-.72,15.9,15.9,0,0,0,9.65-8.53,138.91,138.91,0,0,0,0-115.32,15.87,15.87,0,0,0-9.65-8.53M38,41.15l-.36,4.75a16.74,16.74,0,0,0-2.17,1l-3.9-2.6ZM31.59,179.48l3.91-2.61a14.87,14.87,0,0,0,2.16,1L38,182.6ZM52.8,167.4a10.73,10.73,0,0,1-15.2,4.77c-5.15-3-7.11-8.78-4.76-14A111.79,111.79,0,0,0,42,126.14l7.5-3.64a2.57,2.57,0,1,0-2.24-4.62l-4.65,2.26q.24-3.3.29-6.61l6.6-3.2a2.57,2.57,0,0,0-2.24-4.62l-4.42,2.14c-.07-2.09-.21-4.18-.4-6.26l7.06-3.43a2.57,2.57,0,0,0-2.24-4.62l-5.45,2.65a112,112,0,0,0-8.94-30.66c-2.35-5.18-.39-10.92,4.76-14a10.64,10.64,0,0,1,5.45-1.49,10.68,10.68,0,0,1,9.75,6.25,133.8,133.8,0,0,1,0,111.06M122.42,21.83a3.9,3.9,0,0,0-2.2-3.26L110,13.6a3.92,3.92,0,0,0-5.63,3.82l.42,5.53a15.67,15.67,0,0,0-4.93.73,15.86,15.86,0,0,0-9.66,8.53,138.43,138.43,0,0,0-10.45,81.54,2.57,2.57,0,0,0,5.06-.89A133.23,133.23,0,0,1,94.87,34.34a10.72,10.72,0,0,1,15.2-4.77c5.15,3,7.1,8.78,4.75,14a112,112,0,0,0-8.93,30.65l-5.46-2.64a2.57,2.57,0,1,0-2.24,4.62l7.06,3.42q-.28,3.14-.39,6.27l-4.43-2.15a2.57,2.57,0,1,0-2.23,4.63l6.6,3.2q0,3.3.29,6.6l-4.66-2.26a2.57,2.57,0,1,0-2.23,4.63l7.5,3.64a112.18,112.18,0,0,0,9.12,32.07c2.36,5.18.4,10.92-4.75,13.95a10.71,10.71,0,0,1-15.2-4.77,134.08,134.08,0,0,1-7.55-21.06,2.57,2.57,0,1,0-5,1.32,139.09,139.09,0,0,0,7.84,21.88,15.84,15.84,0,0,0,14.58,9.25l-.42,5.53a3.92,3.92,0,0,0,5.63,3.82l10.23-5a3.91,3.91,0,0,0,.47-6.79l-4.2-2.81a15.7,15.7,0,0,0,3-17.49,106.81,106.81,0,0,1,0-88.43,15.7,15.7,0,0,0-3-17.49l4.21-2.81a3.92,3.92,0,0,0,1.72-3.52M109.64,160.59l.36-4.75a17.52,17.52,0,0,0,2.17-1l3.9,2.6Zm2.53-135.73a16.15,16.15,0,0,0-2.17-1l-.36-4.75,6.43,3.12ZM174.75,94.3a2.57,2.57,0,1,0-5.13.22,134.5,134.5,0,0,1-11.94,61.15,10.72,10.72,0,0,1-15.2,4.77c-5.15-3-7.11-8.78-4.75-14a112.18,112.18,0,0,0,9.12-32.07l7.5-3.64a2.57,2.57,0,1,0-2.24-4.62l-4.65,2.26q.24-3.3.29-6.61l6.6-3.2A2.57,2.57,0,1,0,152.11,94l-4.42,2.14q-.1-3.14-.39-6.27l7.06-3.42a2.57,2.57,0,1,0-2.25-4.62l-5.45,2.64a112,112,0,0,0-8.93-30.65c-2.36-5.18-.4-10.92,4.75-14a10.72,10.72,0,0,1,15.2,4.77,133.59,133.59,0,0,1,11,38.35,2.57,2.57,0,1,0,5.09-.66,138.85,138.85,0,0,0-11.37-39.82A15.89,15.89,0,0,0,152.7,34a15.67,15.67,0,0,0-4.93-.73l.42-5.53a3.93,3.93,0,0,0-5.63-3.82l-10.24,5a3.92,3.92,0,0,0-.46,6.79l4.2,2.81a15.71,15.71,0,0,0-3,17.49A106.67,106.67,0,0,1,142,88.58a105.8,105.8,0,0,1-8.95,55.77,15.71,15.71,0,0,0,3,17.49l-4.2,2.81a3.92,3.92,0,0,0,.46,6.79l10.24,5a3.93,3.93,0,0,0,5.63-3.82l-.42-5.54a15.38,15.38,0,0,0,4.93-.72,15.81,15.81,0,0,0,9.65-8.53,139.49,139.49,0,0,0,12.4-63.5M142.9,29.41l-.35,4.76a14.52,14.52,0,0,0-2.17,1l-3.91-2.6Zm-6.42,138.34,3.9-2.61a15,15,0,0,0,2.17,1l.35,4.76Z" transform="translate(-25.23 -13.21)"/>
</svg>
