<svg id="Layer_1" data-name="Layer 1" xmlns="http://www.w3.org/2000/svg" viewBox="0 0 15.89 12.18"><defs><style>.cls-1{fill:#1c4183;}</style></defs><title>envelop</title><path class="cls-1" d="M17.68,4.14H3.38a.8.8,0,0,0-.8.8V15.53a.8.8,0,0,0,.8.8h14.3a.8.8,0,0,0,.8-.8V4.94a.8.8,0,0,0-.8-.8M18,15.53a.27.27,0,0,1-.27.27H3.38a.27.27,0,0,1-.27-.27V4.94a.27.27,0,0,1,.27-.27h14.3a.27.27,0,0,1,.27.27Z" transform="translate(-2.58 -4.14)"/><path class="cls-1" d="M17.35,5.3a.25.25,0,0,0-.18-.1.26.26,0,0,0-.19.07L10.87,10.4a.54.54,0,0,1-.68,0L4.08,5.27a.26.26,0,0,0-.43.15.24.24,0,0,0,.09.25L9.85,10.8a1,1,0,0,0,1.36,0l6.11-5.13a.24.24,0,0,0,.09-.18.22.22,0,0,0-.06-.19" transform="translate(-2.58 -4.14)"/><path class="cls-1" d="M7.42,10.85l-3.71,4a.27.27,0,0,0-.06.26.26.26,0,0,0,.2.19.25.25,0,0,0,.25-.09l3.71-4A.25.25,0,0,0,7.87,11a.25.25,0,0,0-.19-.18.28.28,0,0,0-.26.08" transform="translate(-2.58 -4.14)"/><path class="cls-1" d="M13.64,10.85a.29.29,0,0,0-.26-.08.26.26,0,0,0-.13.44l3.71,4a.26.26,0,0,0,.37,0,.27.27,0,0,0,0-.37Z" transform="translate(-2.58 -4.14)"/></svg>