<svg id="Layer_1" data-name="Layer 1" xmlns="http://www.w3.org/2000/svg" viewBox="0 0 42.35 31"><defs><style>.cls-1{fill:#1c4183;}</style></defs><title>heart</title><path class="cls-1" d="M48.38,27.88H44.8a11.3,11.3,0,0,0,.76-8A9.57,9.57,0,0,0,36.51,13a11.42,11.42,0,0,0-3.91.72A20.36,20.36,0,0,0,28.09,16a19,19,0,0,0-4.51-2.26,11.58,11.58,0,0,0-3.9-.72,9.58,9.58,0,0,0-9.06,6.88,11.63,11.63,0,0,0,1.13,8.7H7.4a.64.64,0,0,0-.65.64.65.65,0,0,0,.65.65h5.11A8.44,8.44,0,0,0,13.23,31c4.19,6,13.29,12.6,14.94,13v0a.12.12,0,0,0,.08,0h.12v0c1.41-.69,10.15-6.32,14.74-13a14.09,14.09,0,0,0,1.12-1.81h4.23a.64.64,0,0,0,.65-.64.68.68,0,0,0-.73-.61M11.91,20.27a8.22,8.22,0,0,1,7.81-5.91,10.81,10.81,0,0,1,3.46.64,19.82,19.82,0,0,1,4.55,2.33.59.59,0,0,0,.8,0A17.76,17.76,0,0,1,33.08,15a9.83,9.83,0,0,1,3.47-.64,8.28,8.28,0,0,1,7.81,5.91,10.6,10.6,0,0,1-1,7.61h-4l-1.65-2.81a.63.63,0,0,0-.56-.33.61.61,0,0,0-.56.28L35.3,27l-2.22-7.21a.74.74,0,0,0-.64-.48.71.71,0,0,0-.65.48L28.05,32.75,24,22.37a.61.61,0,0,0-.56-.41.63.63,0,0,0-.6.37l-3.18,6.24H13.23a10.85,10.85,0,0,1-1.32-8.3m30,10C37.67,36.5,29.82,41.53,28.13,42.62c-1.73-1.09-9.54-6.16-13.85-12.36L14,29.9H20a.65.65,0,0,0,.6-.37l2.7-5.31,4.23,10.83a.66.66,0,0,0,.6.4h0a.64.64,0,0,0,.6-.48l3.71-12.68,2,6.4a.65.65,0,0,0,.53.44.69.69,0,0,0,.64-.28l1.57-2.3,1.33,2.26a.64.64,0,0,0,.56.32h3.63c-.25.4-.49.77-.73,1.13" transform="translate(-6.75 -13.03)"/></svg>