<svg id="Layer_1" data-name="Layer 1" xmlns="http://www.w3.org/2000/svg" viewBox="0 0 125.96 169.75">
  <defs>
    <style>
      .cls-1 {
        fill: #fff;
      }
    </style>
  </defs>
  <title>heladeria</title>
  <g>
    <path class="cls-1" d="M153,76.49H151.5A11,11,0,0,0,142,60.06h-1.47a11,11,0,0,0-9.48-16.43H118.23c-3.29-2.37-5-5.05-5.36-8.19-.73-7.2,6.38-14.45,6.44-14.51a2.74,2.74,0,0,0-1.93-4.68H111.9a30.16,30.16,0,0,0-30,27.38H70.83a10.94,10.94,0,0,0-9.47,16.43H59.88A11,11,0,0,0,50.4,76.49H48.93A10.95,10.95,0,0,0,46.19,98v8.56a2.74,2.74,0,0,0,2.74,2.74h2.74v8.21a2.73,2.73,0,0,0,2.74,2.74H60.3l9.43,56.56A10.91,10.91,0,0,0,80.53,186h40.84a10.91,10.91,0,0,0,10.8-9.15l9.43-56.56h5.89a2.73,2.73,0,0,0,2.74-2.74v-8.21H153a2.74,2.74,0,0,0,2.74-2.74V98A10.95,10.95,0,0,0,153,76.49M111.72,21.73c-2.35,3.54-4.85,8.72-4.3,14.23a15.1,15.1,0,0,0,3,7.67h-23a24.67,24.67,0,0,1,24.3-21.9M70.83,49.11h60.24a5.48,5.48,0,0,1,0,11H70.83a5.48,5.48,0,0,1,0-11M59.88,65.53H142a5.48,5.48,0,0,1,0,11H59.88a5.48,5.48,0,0,1,0-11M51.67,98.39h21.9v5.47H51.67Zm5.47,11H73.57v5.48H57.14ZM126.77,176a5.47,5.47,0,0,1-5.4,4.58H80.53a5.47,5.47,0,0,1-5.4-4.58l-9.28-55.66h7.72v19.17a8.22,8.22,0,0,0,16.43,0v-6a8.21,8.21,0,0,0,11-7.74v-5.48h35.1Zm18-61.13H101v-5.48h43.81Zm5.47-11H101V98.39h49.28Zm6.61-12.55a5.45,5.45,0,0,1-3.87,1.6H98.21a2.74,2.74,0,0,0-2.73,2.74v30.12a2.74,2.74,0,1,1-5.48,0V106.6a2.74,2.74,0,1,0-5.48,0v32.86a2.74,2.74,0,0,1-5.47,0V95.65a2.74,2.74,0,0,0-2.74-2.74H48.93a5.48,5.48,0,1,1,0-11H153a5.48,5.48,0,0,1,3.87,9.35" transform="translate(-37.97 -16.25)"/>
    <path class="cls-1" d="M81.78,169.57a2.74,2.74,0,0,0,0,5.48h21.91a2.74,2.74,0,0,0,0-5.48Z" transform="translate(-37.97 -16.25)"/>
    <path class="cls-1" d="M111.9,175.05h2.74a2.74,2.74,0,0,0,0-5.48H111.9a2.74,2.74,0,0,0,0,5.48" transform="translate(-37.97 -16.25)"/>
  </g>
</svg>
