<svg id="Layer_1" data-name="Layer 1" xmlns="http://www.w3.org/2000/svg" viewBox="0 0 66.89 66.89">
  <defs>
    <style>
      .cls-1 {
        fill: #00407e;
      }
    </style>
  </defs>
  <title>lacteosblue</title>
  <g>
    <path class="cls-1" d="M82.31,72.87l-6.52-13a1,1,0,0,0-.7-.52,1,1,0,0,0-.84.24,2.49,2.49,0,0,1-1.68.65,2.52,2.52,0,0,1-.49-5,1,1,0,0,0,.68-1.4L71.12,50.6A4.6,4.6,0,0,0,67,48.06h0c-.17,0-.34,0-.5,0,0-2.42-.11-4.84-.19-7.22a13.92,13.92,0,0,0-2-6.79,1,1,0,1,0-1.67,1,12,12,0,0,1,1.75,5.83c.09,2.58.16,5.2.2,7.82a4.64,4.64,0,0,0-1.67,1.84l-4.79,9.54C56.23,57.26,53.63,55,50.6,55c-5.29,0-9.26,6.81-10.27,12h-.06a20.06,20.06,0,0,0-3.67-8.11c0-1.87,0-3.74,0-5.62,1,0,2,0,3,0,2.54,0,5.09-.06,7.62-.19A3.5,3.5,0,0,0,50.59,50a29.83,29.83,0,0,0,0-6.94A3.52,3.52,0,0,0,47.27,40c-3.42-.16-6.89-.22-10.33-.16a11.82,11.82,0,0,1,6.71-9.23h13.9a11.94,11.94,0,0,1,2.7,1.76,1,1,0,0,0,.65.24,1,1,0,0,0,.64-1.72,14.07,14.07,0,0,0-1.39-1.05,3.64,3.64,0,0,0-1.26-6.36V20a4.09,4.09,0,0,0-4.09-4.09H46.4A4.09,4.09,0,0,0,42.31,20v3.46a3.64,3.64,0,0,0-1.26,6.36,13.83,13.83,0,0,0-6.16,11c-.18,5.31-.27,10.67-.26,16A7.27,7.27,0,0,0,30,55c-2.38,0-4.79,1.46-6.78,4.11a1,1,0,1,0,1.56,1.18C25.72,59.06,27.64,57,30,57c1.85,0,3.78,1.29,5.45,3.63A17.89,17.89,0,0,1,38.27,67H21.74a17.34,17.34,0,0,1,1.17-3.5,1,1,0,1,0-1.79-.81A19.6,19.6,0,0,0,19.74,67H18.39a2.54,2.54,0,0,0,0,5.08h.48c.17,1.5.44,3,.71,4.46.19,1,.39,2.1.54,3.15a3.13,3.13,0,0,0,2.74,2.67A62.79,62.79,0,0,0,30,82.8a62.79,62.79,0,0,0,7.14-.44,3,3,0,0,0,1.28-.45,6.56,6.56,0,0,0,3.3.89H50.6a62.65,62.65,0,0,0,7.14-.44,3.13,3.13,0,0,0,1.77-.82,23,23,0,0,0,21.71-3.7,4,4,0,0,0,1.09-5M44.27,20a2.13,2.13,0,0,1,2.13-2.13h8.4A2.13,2.13,0,0,1,56.93,20v3.33H44.27Zm-1,5.29H57.91a1.67,1.67,0,0,1,0,3.34H43.29a1.67,1.67,0,0,1,0-3.34m3.89,16.65a1.54,1.54,0,0,1,1.46,1.37,27,27,0,0,1,0,6.48,1.54,1.54,0,0,1-1.46,1.37c-3.51.17-7.06.22-10.56.15,0-3.18.1-6.36.2-9.52,3.45-.07,6.92,0,10.36.15m17.45,9.54a2.65,2.65,0,0,1,4.74,0l1.15,2.28a4.48,4.48,0,0,0,2,8.46,4.45,4.45,0,0,0,2-.46L80,72.67h0a20.92,20.92,0,0,1-18.94,3.67c.26-1.39.51-2.83.67-4.27h.48a2.54,2.54,0,0,0,0-5.08H60.87a20.11,20.11,0,0,0-1.63-4.79ZM45.15,60.61C46.82,58.27,48.76,57,50.6,57s3.78,1.29,5.45,3.63A17.89,17.89,0,0,1,58.87,67H42.33a17.89,17.89,0,0,1,2.82-6.39M17.81,69.54a.58.58,0,0,1,.58-.58H62.21a.58.58,0,1,1,0,1.16H18.39a.58.58,0,0,1-.58-.58m21.9,10.84a3.88,3.88,0,0,0,.18-.69c.09-.64.2-1.41.31-2.23,0,0,0-.08.1-.08s.09,0,.1.08c.12.82.22,1.59.32,2.23a2.94,2.94,0,0,0,.38,1.1,4.46,4.46,0,0,1-1.39-.41m17.81,0a56.14,56.14,0,0,1-13.83,0,1.19,1.19,0,0,1-1-1c-.09-.64-.19-1.4-.31-2.22a2.06,2.06,0,0,0-4.08,0c-.11.82-.22,1.58-.31,2.22a1.18,1.18,0,0,1-1,1,56.14,56.14,0,0,1-13.83,0,1.18,1.18,0,0,1-1-1c-.16-1.08-.36-2.17-.55-3.23-.25-1.35-.51-2.73-.66-4.1H59.76c-.16,1.37-.41,2.76-.66,4.11-.2,1-.4,2.14-.55,3.22a1.18,1.18,0,0,1-1,1M80,76.31a21,21,0,0,1-19.53,3.48.36.36,0,0,1,0-.1c.06-.46.14-.93.22-1.4a22.83,22.83,0,0,0,20.06-3.73A2.07,2.07,0,0,1,80,76.31" transform="translate(-15.85 -15.91)"/>
    <path class="cls-1" d="M67.91,72.53a4.38,4.38,0,0,0,2.8,1.82,5.54,5.54,0,0,0,.81.07,4.37,4.37,0,0,0,4.28-3.57,4.36,4.36,0,1,0-7.89,1.68m1.24-2.91a2.39,2.39,0,0,1,1-1.55,2.42,2.42,0,0,1,1.35-.42,3.42,3.42,0,0,1,.45,0,2.41,2.41,0,1,1-.88,4.73,2.38,2.38,0,0,1-1.54-1,2.35,2.35,0,0,1-.38-1.8" transform="translate(-15.85 -15.91)"/>
    <path class="cls-1" d="M63.8,66.65a2.88,2.88,0,0,0,.59,0,3.19,3.19,0,0,0,3.12-2.6A3.19,3.19,0,0,0,67,61.72a3.14,3.14,0,0,0-2-1.32,3.18,3.18,0,1,0-1.16,6.25m-.62-3.35a1.22,1.22,0,0,1,1.42-1,1.24,1.24,0,0,1,1,1.43,1.22,1.22,0,0,1-2.4-.45" transform="translate(-15.85 -15.91)"/>
  </g>
</svg>
