<svg id="Layer_1" data-name="Layer 1" xmlns="http://www.w3.org/2000/svg" viewBox="0 0 161.87 161.88">
  <defs>
    <style>
      .cls-1 {
        fill: #fff;
      }
    </style>
  </defs>
  <title>lacteos</title>
  <g>
    <path class="cls-1" d="M183.17,155.85l-15.78-31.4a2.37,2.37,0,0,0-3.72-.69,6,6,0,0,1-4.08,1.58,6.09,6.09,0,0,1-1.18-12.06,2.38,2.38,0,0,0,1.66-3.4l-4-7.91a11.11,11.11,0,0,0-10-6.14h0a10,10,0,0,0-1.22.07c-.1-5.86-.25-11.73-.45-17.48A33.63,33.63,0,0,0,139.51,62a2.37,2.37,0,0,0-4,2.49,28.86,28.86,0,0,1,4.24,14.1c.22,6.23.38,12.6.48,18.94a11.15,11.15,0,0,0-4,4.45l-11.6,23.09c-4.49-7-10.78-12.4-18.12-12.4-12.8,0-22.41,16.47-24.85,29h-.15A48.52,48.52,0,0,0,72.56,122q-.06-6.78,0-13.61,3.67.08,7.37.08c6.15,0,12.33-.15,18.46-.45a8.47,8.47,0,0,0,8-7.48,71.61,71.61,0,0,0,0-16.81,8.47,8.47,0,0,0-8-7.49c-8.29-.41-16.69-.53-25-.39A28.56,28.56,0,0,1,89.62,53.54h33.63a28.4,28.4,0,0,1,6.54,4.26,2.37,2.37,0,1,0,3.11-3.58,33.09,33.09,0,0,0-3.36-2.56,8.78,8.78,0,0,0-3-15.37V27.9a9.91,9.91,0,0,0-9.9-9.9H96.27a9.91,9.91,0,0,0-9.9,9.9v8.39a8.77,8.77,0,0,0-3,15.37A33.5,33.5,0,0,0,68.41,78.42c-.44,12.84-.65,25.82-.62,38.66a17.69,17.69,0,0,0-11.21-4.42c-5.76,0-11.6,3.53-16.42,9.94a2.37,2.37,0,1,0,3.78,2.85c2.27-3,6.92-8,12.64-8,4.46,0,9.14,3.12,13.19,8.79a43.33,43.33,0,0,1,6.82,15.46h-40a42.57,42.57,0,0,1,2.83-8.47,2.37,2.37,0,1,0-4.32-2,47.33,47.33,0,0,0-3.35,10.43H28.48a6.15,6.15,0,0,0,0,12.3h1.17c.39,3.64,1.06,7.26,1.71,10.78.46,2.51.94,5.1,1.3,7.63a7.58,7.58,0,0,0,6.64,6.46,149.89,149.89,0,0,0,17.28,1.06,149.42,149.42,0,0,0,17.26-1.06A7.45,7.45,0,0,0,77,177.74a15.78,15.78,0,0,0,8,2.14h21.48a150.19,150.19,0,0,0,17.29-1.06,7.5,7.5,0,0,0,4.28-2,55.6,55.6,0,0,0,52.54-9,9.82,9.82,0,0,0,2.63-12M91.11,27.9a5.17,5.17,0,0,1,5.16-5.16h20.32a5.17,5.17,0,0,1,5.16,5.16V36H91.11ZM88.74,40.7h35.38a4,4,0,1,1,0,8.09H88.74a4,4,0,0,1,0-8.09M98.15,81a3.75,3.75,0,0,1,3.54,3.3,66.49,66.49,0,0,1,0,15.7,3.75,3.75,0,0,1-3.54,3.3c-8.49.42-17.08.54-25.56.37.08-7.69.25-15.39.5-23.05,8.33-.15,16.75,0,25.06.38m42.23,23.09a6.43,6.43,0,0,1,11.48,0l2.77,5.52A10.83,10.83,0,0,0,164.36,129l13.26,26.39,0,0a50.48,50.48,0,0,1-23.06,10.26,51,51,0,0,1-22.78-1.38c.62-3.39,1.25-6.85,1.62-10.34h1.17a6.15,6.15,0,0,0,0-12.3h-3.25a48.52,48.52,0,0,0-3.94-11.6ZM93.25,126.19c4-5.67,8.72-8.79,13.18-8.79s9.14,3.12,13.18,8.79a43.35,43.35,0,0,1,6.83,15.46h-40a43.35,43.35,0,0,1,6.83-15.46M27.08,147.81a1.41,1.41,0,0,1,1.4-1.41H134.53a1.41,1.41,0,1,1,0,2.81h-106a1.4,1.4,0,0,1-1.4-1.4m53,26.22a7.74,7.74,0,0,0,.44-1.67l.76-5.39c0-.13,0-.2.24-.2s.22.07.24.2c.27,2,.54,3.83.76,5.39a7.61,7.61,0,0,0,.92,2.68,11.25,11.25,0,0,1-3.36-1m43.11.08a136.8,136.8,0,0,1-33.47,0,2.85,2.85,0,0,1-2.51-2.42l-.76-5.37a5,5,0,0,0-9.87,0c-.27,2-.54,3.82-.76,5.37a2.83,2.83,0,0,1-2.5,2.42,136.8,136.8,0,0,1-33.47,0,2.83,2.83,0,0,1-2.48-2.42c-.38-2.63-.87-5.27-1.34-7.82-.6-3.26-1.21-6.61-1.6-9.92h94.17c-.38,3.32-1,6.68-1.6,10-.47,2.54-.95,5.17-1.33,7.79a2.84,2.84,0,0,1-2.48,2.42m54.4-9.93a50.82,50.82,0,0,1-47.27,8.43c0-.08,0-.16,0-.25.17-1.12.35-2.25.55-3.38a55.34,55.34,0,0,0,48.56-9,5,5,0,0,1-1.88,4.23" transform="translate(-22.33 -18)"/>
    <path class="cls-1" d="M148.33,155a10.51,10.51,0,0,0,6.78,4.4,10.69,10.69,0,0,0,1.94.18,10.56,10.56,0,1,0-8.72-4.58m3-7a5.82,5.82,0,0,1,5.71-4.76,5.54,5.54,0,0,1,1.07.1A5.82,5.82,0,0,1,156,154.77a5.83,5.83,0,0,1-4.66-6.78" transform="translate(-22.33 -18)"/>
    <path class="cls-1" d="M138.37,140.81a8.52,8.52,0,0,0,1.42.13,7.71,7.71,0,1,0-1.42-.13m-1.5-8.11a3,3,0,1,1,4.58,3,2.91,2.91,0,0,1-2.22.47,3,3,0,0,1-2.36-3.44" transform="translate(-22.33 -18)"/>
  </g>
</svg>
