<svg id="Layer_1" data-name="Layer 1" xmlns="http://www.w3.org/2000/svg" viewBox="0 0 126.17 65.1"><defs><style>.cls-1{fill:#1c4183;}</style></defs><title>logo-blue</title><polygon class="cls-1" points="55.98 27.98 55.98 0 76.4 0 76.4 5.86 63.21 5.86 63.21 11.58 74.62 11.58 74.62 17.2 63.21 17.2 63.21 30.47 55.98 27.98"/><path class="cls-1" d="M61.21,65.28c-.38-.25-.74-.53-1.1-.79a3.74,3.74,0,0,0-5-5.27,12.15,12.15,0,0,1-1-2.08,2.89,2.89,0,0,0-.23-5.27,7.86,7.86,0,0,1,1-2.07,1.49,1.49,0,0,0,.78.23,1.59,1.59,0,0,0,1.59-1.59,1.54,1.54,0,0,0-.3-.86,12.45,12.45,0,0,1,1.73-1.17l.05,0a3.59,3.59,0,0,0-.34.17,13.46,13.46,0,0,0-1.48,1,1.53,1.53,0,0,0-1.25-.65,1.59,1.59,0,0,0-1.59,1.58,1.55,1.55,0,0,0,.63,1.24,8.52,8.52,0,0,0-1.19,2.08,2.61,2.61,0,0,0-.69-.1,2.9,2.9,0,0,0,0,5.8,3.08,3.08,0,0,0,.61-.07,11.56,11.56,0,0,0,1,2.28,3.72,3.72,0,0,0-1.34,2.86,3.77,3.77,0,0,0,6.46,2.64c.37.28.75.56,1.15.83,8.08,5.42,19.74,8.39,27.9,6.52l-1.2-2.8C79.65,72,69,70.47,61.21,65.28m35.9-1.78a5.6,5.6,0,1,1-2.86-.8,5.43,5.43,0,0,1,1.29.16c.86-3.7-1.15-8-6.07-11.63l.12.08c5.06,3.52,7.56,8.08,7.52,12.19" transform="translate(-11.83 -41.18)"/><rect class="cls-1" x="119.24" y="35.1" width="6.92" height="29.39"/><path class="cls-1" d="M103.3,95a11.7,11.7,0,0,1,1.41-5.73,10.46,10.46,0,0,1,4-4.07,11.93,11.93,0,0,1,11.51,0,10.49,10.49,0,0,1,4,4.07,12.26,12.26,0,0,1,0,11.49,10.2,10.2,0,0,1-4,4.06,11.93,11.93,0,0,1-11.51,0,10.26,10.26,0,0,1-4-4A11.89,11.89,0,0,1,103.3,95m6.92,0a9.8,9.8,0,0,0,.41,2.89,4.82,4.82,0,0,0,1.35,2.2,3.47,3.47,0,0,0,2.44.85,3.56,3.56,0,0,0,2.46-.85,5,5,0,0,0,1.36-2.24,9.78,9.78,0,0,0,0-5.67,5.06,5.06,0,0,0-1.36-2.23,3.53,3.53,0,0,0-2.46-.88,3.47,3.47,0,0,0-2.46.89,4.92,4.92,0,0,0-1.34,2.21,9.87,9.87,0,0,0-.4,2.83" transform="translate(-11.83 -41.18)"/><path class="cls-1" d="M85.48,105.67V84.31h6.73v3.76h.07A6.2,6.2,0,0,1,94.72,85a7,7,0,0,1,3.93-1.07,6.27,6.27,0,0,1,1.61.18v6.37A10.27,10.27,0,0,0,97.61,90a5.46,5.46,0,0,0-2.82.69A4.49,4.49,0,0,0,93,92.59a5.43,5.43,0,0,0-.61,2.5v10.58Z" transform="translate(-11.83 -41.18)"/><path class="cls-1" d="M64.85,105.67V84.31h6.73v3.76h.08A6.13,6.13,0,0,1,74.09,85,7,7,0,0,1,78,83.9a6.22,6.22,0,0,1,1.61.18v6.37A10.27,10.27,0,0,0,77,90a5.46,5.46,0,0,0-2.82.69,4.43,4.43,0,0,0-1.78,1.86,5.42,5.42,0,0,0-.6,2.5v10.58Z" transform="translate(-11.83 -41.18)"/><path class="cls-1" d="M57.87,96.7H42.35a5.41,5.41,0,0,0,1.33,3.54,4.4,4.4,0,0,0,3.38,1.31,5.22,5.22,0,0,0,1.67-.25,4.46,4.46,0,0,0,1.37-.79A3.34,3.34,0,0,0,51,99.18h6.48a8.53,8.53,0,0,1-2.16,4,9.52,9.52,0,0,1-3.75,2.35,13.78,13.78,0,0,1-4.62.76,12.83,12.83,0,0,1-6.08-1.37,9.4,9.4,0,0,1-4-3.94,12.19,12.19,0,0,1-1.44-6.07A11.1,11.1,0,0,1,37,89.18a10.79,10.79,0,0,1,4.16-4,11.65,11.65,0,0,1,5.72-1.46,11.76,11.76,0,0,1,4.79.91,9.45,9.45,0,0,1,3.45,2.55A11.07,11.07,0,0,1,57.16,91a16,16,0,0,1,.71,4.8ZM42.35,92.77H51a4.78,4.78,0,0,0-1.25-3.09,3.72,3.72,0,0,0-2.87-1.25,4,4,0,0,0-3,1.21,5.52,5.52,0,0,0-1.49,3.13" transform="translate(-11.83 -41.18)"/><polygon class="cls-1" points="0 64.49 0 35.1 21.43 35.1 21.43 41.25 7.58 41.25 7.58 47.26 19.56 47.26 19.56 53.17 7.58 53.17 7.58 64.49 0 64.49"/></svg>