<svg id="Layer_1" data-name="Layer 1" xmlns="http://www.w3.org/2000/svg" xmlns:xlink="http://www.w3.org/1999/xlink" viewBox="0 0 57.27 51.47">
  <defs>
    <style>
      .cls-1 {
        fill: none;
      }

      .cls-2 {
        clip-path: url(#clip-path);
      }

      .cls-3 {
        fill: #fff;
      }
    </style>
    <clipPath id="clip-path" transform="translate(-1.4 -4.36)">
      <path class="cls-1" d="M28.35,28.42V30.1H26.68a1.68,1.68,0,0,0,0,3.36h1.67v1.67a1.68,1.68,0,0,0,3.36,0V33.46h1.68a1.68,1.68,0,0,0,0-3.36H31.71V28.42a1.68,1.68,0,0,0-3.36,0m-6.71,3.36A8.39,8.39,0,1,1,30,40.17a8.4,8.4,0,0,1-8.39-8.39m-3.35,0A11.75,11.75,0,1,0,30,20,11.75,11.75,0,0,0,18.29,31.78M31.42,13.7a14.44,14.44,0,0,1,3.09-3,14.74,14.74,0,0,1,8.94-2.95c6.65,0,11.86,5.81,11.86,13.24,0,4.7-2.15,10.35-5.89,15.5C44.93,42.66,38.23,48.11,30,52.28c-8.2-4.17-14.89-9.62-19.39-15.81C6.9,31.32,4.75,25.67,4.75,21,4.75,13.54,10,7.73,16.61,7.73a14.79,14.79,0,0,1,9,2.95,14.35,14.35,0,0,1,3.08,3,1.68,1.68,0,0,0,1.39.74,1.65,1.65,0,0,0,1.39-.74M30,10.15A18.42,18.42,0,0,0,16.61,4.37a14.5,14.5,0,0,0-11,5A17.49,17.49,0,0,0,1.39,21c0,5.47,2.32,11.68,6.54,17.48,4.94,6.81,12.33,12.76,21.36,17.21a1.74,1.74,0,0,0,.74.17,1.71,1.71,0,0,0,.74-.17c9-4.45,16.42-10.4,21.37-17.21,4.21-5.8,6.53-12,6.53-17.48A17.49,17.49,0,0,0,54.46,9.39a14.48,14.48,0,0,0-11-5A18.44,18.44,0,0,0,30,10.15"/>
    </clipPath>
  </defs>
  <title>micronutrientes</title>
  <g class="cls-2">
    <rect class="cls-3" width="57.27" height="51.47"/>
  </g>
</svg>
