<svg id="Layer_1" data-name="Layer 1" xmlns="http://www.w3.org/2000/svg" viewBox="0 0 66.11 66.12">
  <defs>
    <style>
      .cls-1 {
        fill: #00407e;
      }
    </style>
  </defs>
  <title>nuggets</title>
  <g>
    <path class="cls-1" d="M18.57,48.69a1,1,0,0,0-.54,1.1l5.13,33.06a1.09,1.09,0,0,0,1.09.93H73.5a1.09,1.09,0,0,0,1.08-.93l5.13-33.06a1.1,1.1,0,0,0-1.08-1.27H76.42V46.77l1-1a4.22,4.22,0,0,0-3-7.2H70l1.8-3.76,3-3a3.73,3.73,0,0,1,2.68-1,4.51,4.51,0,0,0,3.29-1.44,4.4,4.4,0,0,0,1.13-3.39,4.54,4.54,0,0,0-3.37-3.87,1.61,1.61,0,0,1-1.14-1.13,4.52,4.52,0,0,0-3.87-3.37,4.39,4.39,0,0,0-4.82,4.41,3.7,3.7,0,0,1-1,2.69l-3,3L51.77,34c-.71.34-1.44.65-2.16,1l-2.25-1.57a7.73,7.73,0,0,0-1.88-.95,1,1,0,0,0,.09-.43V18.77A1.1,1.1,0,0,0,43.73,18L27.24,32.85a7.31,7.31,0,0,0-1.37,1.71,8.39,8.39,0,0,0-5,.51,8.15,8.15,0,0,0-4.93,6.28,8.05,8.05,0,0,0,2.65,7.34m54,32.89H25.19L20.41,50.72H77.34Zm3.87-38.76a2,2,0,0,1-.59,1.43l-1.29,1.29a1.06,1.06,0,0,0-.32.78v2.2H45.57a7.71,7.71,0,0,1,7.71-7.71H74.41a2,2,0,0,1,2,2M69.3,26.35a5.89,5.89,0,0,0,1.61-4.28,2.2,2.2,0,0,1,2.42-2.19,2.34,2.34,0,0,1,2,1.76A3.84,3.84,0,0,0,78,24.32a2.32,2.32,0,0,1,1.77,1.95,2.23,2.23,0,0,1-.57,1.7,2.25,2.25,0,0,1-1.68.71,5.89,5.89,0,0,0-4.22,1.62l-2.34,2.34-4-3.95ZM52.72,36,65.17,30l4.41,4.41-2,4.17H53.28a9.88,9.88,0,0,0-7.56,3.52L43.33,40q.49-.26,1-.48l1.54-.61c2.25-.89,4.58-1.82,6.83-2.9m-5.51,0-2.14.87-1.54.61a13.93,13.93,0,0,0-1.93,1l-1.05-.95,3.19-3.2a5.52,5.52,0,0,1,2.35.92ZM28.73,34.47,43.36,21.25V31.53l-5.18,5.19a1.13,1.13,0,0,0-.33.81,1.1,1.1,0,0,0,.37.79L44.48,44a9.88,9.88,0,0,0-1.12,4.55h-8s0-.06,0-.09a1.1,1.1,0,0,0-.41-1l-5.95-4.73a5.44,5.44,0,0,1-.33-8.25ZM18.09,41.69a6,6,0,0,1,3.62-4.59A6.25,6.25,0,0,1,25,36.66a7.56,7.56,0,0,0,2.67,7.78l4.58,3.65-.87.43H21.55l0-.05-1.51-1.39a5.92,5.92,0,0,1-2-5.39" transform="translate(-15.82 -17.67)"/>
    <rect class="cls-1" x="4.41" y="24.24" width="2.2" height="2.2"/>
    <rect class="cls-1" x="20.94" y="12.12" width="2.2" height="2.2"/>
    <rect class="cls-1" x="15.43" y="17.63" width="2.2" height="2.2"/>
    <rect class="cls-1" x="20.94" y="24.24" width="2.2" height="2.2"/>
    <rect class="cls-1" x="38.57" y="25.34" width="2.2" height="2.2"/>
    <rect class="cls-1" x="47.38" y="26.45" width="2.2" height="2.2"/>
    <rect class="cls-1" x="44.08" y="16.53" width="2.2" height="2.2"/>
    <rect class="cls-1" x="26.1" y="58.38" width="2.2" height="8.94" transform="translate(-25.79 -12.33) rotate(-9.47)"/>
    <rect class="cls-1" x="24.81" y="54.01" width="2.2" height="2.24" transform="translate(-24.51 -12.66) rotate(-9.45)"/>
  </g>
</svg>
