<svg id="Layer_1" data-name="Layer 1" xmlns="http://www.w3.org/2000/svg" viewBox="0 0 155.63 150.44">
  <defs>
    <style>
      .cls-1 {
        fill: #fff;
      }
    </style>
  </defs>
  <title>panificadora</title>
  <g>
    <path class="cls-1" d="M48.9,71.65a2.56,2.56,0,0,0,2.2,1.23H69.26a13,13,0,0,0,20.75,0h18.16a2.54,2.54,0,0,0,2.2-1.23,2.59,2.59,0,0,0,.13-2.53l-2-4,2-4a2.59,2.59,0,0,0-.13-2.53,2.54,2.54,0,0,0-2.2-1.23H90a13,13,0,0,0-20.75,0H51.1a2.56,2.56,0,0,0-2.2,1.23,2.59,2.59,0,0,0-.13,2.53l2,4-2,4a2.59,2.59,0,0,0,.13,2.53M104,62.51l-.72,1.42a2.74,2.74,0,0,0,0,2.34l.72,1.42H92.35a13,13,0,0,0,0-5.18ZM79.64,57.32a7.78,7.78,0,1,1-7.78,7.78,7.8,7.8,0,0,1,7.78-7.78M56,63.93l-.71-1.42H67a13,13,0,0,0,0,5.18H55.32L56,66.27a2.67,2.67,0,0,0,0-2.34" transform="translate(-25.17 -26.19)"/>
    <path class="cls-1" d="M179.63,94.06l-6.94-4.61-2.33-9.4a2.6,2.6,0,0,0-2.53-2h-35.7a285.38,285.38,0,0,0-6.19-31.13h2.95a2.59,2.59,0,0,0,2.59-2.59V28.79a2.6,2.6,0,0,0-2.59-2.6H30.35a2.61,2.61,0,0,0-2.59,2.6V44.35a2.6,2.6,0,0,0,2.59,2.59H33.3c-3,11.71-8.13,35.15-8.13,57.07a301,301,0,0,0,3.53,45.46v0c.65,4.11,1.2,7,1.49,8.49-1.46,2.43-5,9.15-5,16a2.6,2.6,0,0,0,2.59,2.6H178.2a2.61,2.61,0,0,0,2.6-2.6V96.23a2.54,2.54,0,0,0-1.17-2.17M156,96.23h-8.88a2.59,2.59,0,1,0,0,5.18h7.78V147c-4.77-4.05-12.94-9.3-23.35-9.3s-18.58,5.25-23.34,9.34V101.41H136.7a2.59,2.59,0,1,0,0-5.18H110.05l7.42-13h45.92Zm-73.73,5.18A13,13,0,0,1,92.61,88.7v7.53A7.81,7.81,0,0,1,84.83,104h-2.6ZM77,104H74.45a7.8,7.8,0,0,1-7.78-7.78V88.7A13,13,0,0,1,77,101.41ZM82.23,130a13,13,0,0,1,10.38-12.71v7.52a7.81,7.81,0,0,1-7.78,7.78h-2.6ZM77,132.54H74.45a7.8,7.8,0,0,1-7.78-7.78v-7.52A13,13,0,0,1,77,130Zm5.19,25.94a13,13,0,0,1,10.38-12.71v7.52a7.81,7.81,0,0,1-7.78,7.78h-2.6ZM77,161.07H74.45a7.8,7.8,0,0,1-7.78-7.78v-7.52A13,13,0,0,1,77,158.48Zm5.19,5.19h2.6a13,13,0,0,0,13-13V142.92a2.6,2.6,0,0,0-2.59-2.6,18.11,18.11,0,0,0-13,5.48v-8.07h2.6a13,13,0,0,0,12.61-10A59.08,59.08,0,0,1,103,130v41.44H82.23ZM33,31.38h93.38V41.75H33ZM30.35,104c0-22.18,5.45-46.08,8.3-57.07h81.94a289.89,289.89,0,0,1,6.29,31.13H116a2.55,2.55,0,0,0-2.24,1.3L103.34,97.52a2.6,2.6,0,0,0-.36,1.3v25.52c-1.68-.71-3.44-1.36-5.19-2v-8a2.6,2.6,0,0,0-2.59-2.59,18.11,18.11,0,0,0-13,5.48V109.2h2.6a13,13,0,0,0,13-13V85.85a2.59,2.59,0,0,0-2.59-2.59,18.17,18.17,0,0,0-15.56,8.81,18.17,18.17,0,0,0-15.57-8.81,2.6,2.6,0,0,0-2.59,2.59V96.23a13,13,0,0,0,13,13H77v8.07a18.09,18.09,0,0,0-13-5.48,2.6,2.6,0,0,0-2.59,2.59v8A57.28,57.28,0,0,0,33,142.72,295.51,295.51,0,0,1,30.35,104m4.77,55.9a2.72,2.72,0,0,0,.39-2c0-.07-.62-2.79-1.4-7.49a51.46,51.46,0,0,1,27.72-22.67,13,13,0,0,0,12.62,10H77v8.07a18.09,18.09,0,0,0-13-5.48,2.61,2.61,0,0,0-2.59,2.6v10.37a13,13,0,0,0,13,13H77v5.19H30.55a32.62,32.62,0,0,1,4.57-11.54m73.05-5.65c2.27-2.49,11.19-11.34,23.34-11.34s21.08,8.85,23.35,11.34v17.19H108.17Zm67.44,17.19h-5.19V117a2.6,2.6,0,1,0-5.19,0v54.47h-5.18v-70h5.18a2.59,2.59,0,1,0,0-5.18h-3.3l5-8.66,1,4.12A2.71,2.71,0,0,0,169,93.21l6.62,4.41Z" transform="translate(-25.17 -26.19)"/>
    <path class="cls-1" d="M131.51,111.79c-7.16,0-13,4.67-13,10.38s5.81,10.37,13,10.37,13-4.67,13-10.37-5.8-10.38-13-10.38m0,15.56c-4.21,0-7.78-2.36-7.78-5.18s3.57-5.19,7.78-5.19,7.79,2.37,7.79,5.19-3.57,5.18-7.79,5.18" transform="translate(-25.17 -26.19)"/>
  </g>
</svg>
