<svg id="Layer_1" data-name="Layer 1" xmlns="http://www.w3.org/2000/svg" viewBox="0 0 70 35.63">
  <defs>
    <style>
      .cls-1 {
        fill: #00407e;
      }
    </style>
  </defs>
  <title>panificacion</title>
  <g>
    <path class="cls-1" d="M16.51,60.94v-8H14.46v8a7.19,7.19,0,0,0,7.18,7.18H69.08V66.07H21.64a5.13,5.13,0,0,1-5.13-5.13" transform="translate(-14.46 -32.49)"/>
    <path class="cls-1" d="M75.39,46a4.1,4.1,0,0,0,0-5.8l-5.57-5.57h.47A12,12,0,0,1,77,36.7L78.14,35a14.08,14.08,0,0,0-7.85-2.39H64.87l2,2h-5.8l-2-2H44.6l2,2h-5.8l-2.05-2h-.42c-1,0-2.06,0-3.2-.05a60.63,60.63,0,0,0-8.39.17L24.72,33l1.85,1.84a11.72,11.72,0,0,0-4.22,1.58l-1.51-1.5-.71.53a14.27,14.27,0,0,0-5.67,11.32v4.1h2.05v-4.1a12.2,12.2,0,0,1,4.17-9.12l3.86,3.87L26,40.07l-2.14-2.15a10,10,0,0,1,4.59-1.21l5,5a2.05,2.05,0,0,1-2.9,2.9l-3.06-3L26,43,29,46a4.1,4.1,0,0,0,5.81-5.8l-5.64-5.64c1.88-.08,4,0,5.93,0,1,0,1.93,0,2.81,0l5.83,5.84L45.23,39,42.9,36.7h5.8l5,5a2.05,2.05,0,0,1-2.9,2.9l-4.08-4.08-1.46,1.45L49.32,46a4.1,4.1,0,1,0,5.8-5.8l-5.57-5.57h8.67l5.84,5.84L65.51,39,63.17,36.7H69l5,5a2.05,2.05,0,0,1-2.9,2.9L67,40.49l-1.45,1.45L69.59,46a4.13,4.13,0,0,0,5.8,0" transform="translate(-14.46 -32.49)"/>
    <path class="cls-1" d="M79.88,36.36l-1.39,1.51a12.16,12.16,0,0,1,3.92,8.9V60.94a5.13,5.13,0,0,1-5.13,5.13H71.13v2.05h6.15a7.19,7.19,0,0,0,7.18-7.18V46.77a14.21,14.21,0,0,0-4.58-10.41" transform="translate(-14.46 -32.49)"/>
    <rect class="cls-1" x="11.28" y="29.48" width="2.05" height="2.05"/>
    <rect class="cls-1" x="63.85" y="18.38" width="2.05" height="8.2"/>
    <rect class="cls-1" x="63.85" y="14.28" width="2.05" height="2.05"/>
    <path class="cls-1" d="M18.56,58.89v2A3.08,3.08,0,0,0,21.64,64h2.05V62H21.64a1,1,0,0,1-1-1v-2Z" transform="translate(-14.46 -32.49)"/>
  </g>
</svg>
