<svg id="Layer_1" data-name="Layer 1" xmlns="http://www.w3.org/2000/svg" viewBox="0 0 77.5 68.87">
  <defs>
    <style>
      .cls-1 {
        fill: #00407e;
      }
    </style>
  </defs>
  <title>pastas</title>
  <path class="cls-1" d="M30.78,64.16a1.21,1.21,0,0,1-1.21,1.21h-.32a1.21,1.21,0,1,1,0-2.42h.32a1.21,1.21,0,0,1,1.21,1.21M23.36,53H23a1.21,1.21,0,0,0,0,2.42h.33a1.21,1.21,0,0,0,0-2.42M35,43.29h-.33a1.21,1.21,0,0,0,0,2.42H35a1.21,1.21,0,0,0,0-2.42m7.43-15.83h-.32a1.21,1.21,0,0,0,0,2.42h.32a1.21,1.21,0,0,0,0-2.42M57.47,41a3.87,3.87,0,1,1,3.87,3.87A3.87,3.87,0,0,1,57.47,41m2.41,0a1.46,1.46,0,1,0,1.46-1.46A1.45,1.45,0,0,0,59.88,41m-26-3.33A3.87,3.87,0,1,1,30,33.77a3.88,3.88,0,0,1,3.87,3.87m-2.42,0A1.46,1.46,0,1,0,30,39.1a1.45,1.45,0,0,0,1.45-1.46m-6.77,5.65h-.32a1.21,1.21,0,0,0,0,2.42h.32a1.21,1.21,0,0,0,0-2.42M48.44,29.88h.33a1.21,1.21,0,0,0,0-2.42h-.33a1.21,1.21,0,0,0,0,2.42m25.8,33.05a1.18,1.18,0,0,0,1.62-.52l.15-.28A1.21,1.21,0,0,0,73.86,61l-.14.28a1.2,1.2,0,0,0,.52,1.63M62.79,76.71a1.21,1.21,0,0,1-.38,1.61.62.62,0,0,1-.12.08,33.76,33.76,0,0,1-33.61,0l-.11-.06a.41.41,0,0,1-.11-.07,33.76,33.76,0,0,1,0-58.36.41.41,0,0,1,.11-.07l.11-.06a33.71,33.71,0,0,1,33.55,0l.12.06.11.07A33.8,33.8,0,0,1,79.23,49.11h0A1.21,1.21,0,0,1,78,50.32H47.54L49,52.81l.08.13ZM60,76.89,44.41,49.71a1.19,1.19,0,0,1,0-1.21,1.23,1.23,0,0,1,1.05-.6H71.85a26.4,26.4,0,0,0-9.13-18.78,1.21,1.21,0,0,1,1.58-1.83,28.83,28.83,0,0,1,10,20.61h2.52A31.38,31.38,0,0,0,62.17,22.58L49.06,45.28A1.21,1.21,0,0,1,47,44.07L57.61,25.65a26.43,26.43,0,0,0-21.29-1.33,1.22,1.22,0,0,1-1.56-.72,1.2,1.2,0,0,1,.72-1.55,28.86,28.86,0,0,1,23.34,1.5l1.26-2.18a31.33,31.33,0,0,0-29.24,0l13.1,22.7a1.21,1.21,0,0,1-2.09,1.21L31.21,26.86A26.24,26.24,0,0,0,19.37,44.94,1.22,1.22,0,0,1,18,46a1.21,1.21,0,0,1-1-1.39,28.71,28.71,0,0,1,13-19.8l-1.26-2.18A31.38,31.38,0,0,0,14.12,47.9H40.34a1.21,1.21,0,0,1,0,2.42H19.07a26.33,26.33,0,0,0,9.34,19,1.21,1.21,0,0,1-1.56,1.85,28.77,28.77,0,0,1-10.2-20.82H14.12A31.36,31.36,0,0,0,28.75,75.64l13.1-22.7a1.21,1.21,0,1,1,2.09,1.21L33.3,72.57A26.45,26.45,0,0,0,54.6,73.9a1.21,1.21,0,1,1,.84,2.27,28.86,28.86,0,0,1-23.34-1.5l-1.26,2.18a31.39,31.39,0,0,0,29.19,0m11.32-8.36a1.17,1.17,0,0,0,.55.13A1.2,1.2,0,0,0,73,68l.15-.29A1.21,1.21,0,1,0,71,66.61l-.15.29a1.2,1.2,0,0,0,.52,1.63M66.92,62.7a1.24,1.24,0,0,0,.56.13,1.19,1.19,0,0,0,1.07-.65l.15-.29a1.21,1.21,0,1,0-2.15-1.11l-.15.29a1.22,1.22,0,0,0,.52,1.63m22.26-8A33.68,33.68,0,0,1,84.5,71.9,34,34,0,0,1,72.24,84a1.33,1.33,0,0,1-.92.12,1.23,1.23,0,0,1-.73-.57L54.35,55.35a1.24,1.24,0,0,1,0-1.21,1.23,1.23,0,0,1,1-.6H88a1.21,1.21,0,0,1,1.21,1.21M86.74,56H57.49L69.6,77A26.38,26.38,0,0,0,81.39,59.51a1.21,1.21,0,1,1,2.38.43,28.81,28.81,0,0,1-13,19.19l1.26,2.19A31.5,31.5,0,0,0,86.74,56M49.81,69.65h.32a1.21,1.21,0,1,0,0-2.42h-.32a1.21,1.21,0,1,0,0,2.42M46.1,69a3.87,3.87,0,1,1-3.87-3.88A3.88,3.88,0,0,1,46.1,69m-2.42,0a1.46,1.46,0,1,0-1.45,1.45A1.45,1.45,0,0,0,43.68,69m.2-9.74a1.21,1.21,0,0,0,1.21,1.21h.32a1.21,1.21,0,1,0,0-2.41h-.32a1.21,1.21,0,0,0-1.21,1.2m1.41-22.76h.33a1.21,1.21,0,0,0,0-2.42h-.33a1.21,1.21,0,0,0,0,2.42m-9.6,19.78a3.88,3.88,0,1,1-3.87-3.87,3.87,3.87,0,0,1,3.87,3.87m-2.42,0a1.46,1.46,0,1,0-1.45,1.46,1.45,1.45,0,0,0,1.45-1.46" transform="translate(-11.68 -15.33)"/>
</svg>
