<svg id="Layer_1" data-name="Layer 1" xmlns="http://www.w3.org/2000/svg" viewBox="0 0 63.93 61.28">
  <defs>
    <style>
      .cls-1 {
        fill: #00407e;
      }
    </style>
  </defs>
  <title>pasteleria</title>
  <g>
    <path class="cls-1" d="M63.21,27.4a.94.94,0,0,0-1.33-1.32L61,27a.94.94,0,0,0,1.32,1.33Z" transform="translate(-18.4 -17.75)"/>
    <path class="cls-1" d="M65.19,29.39l-.89.89a1,1,0,0,0,0,1.33.93.93,0,0,0,.66.27,1,1,0,0,0,.67-.27l.89-.89a.94.94,0,0,0-1.33-1.33" transform="translate(-18.4 -17.75)"/>
    <path class="cls-1" d="M68.28,35.2a.94.94,0,0,0,.66-.28l.89-.89a.94.94,0,0,0-1.32-1.33l-.9.9a.94.94,0,0,0,0,1.32,1,1,0,0,0,.67.28" transform="translate(-18.4 -17.75)"/>
    <path class="cls-1" d="M59.72,31.56l-.89.89a.92.92,0,0,0,0,1.32.92.92,0,0,0,1.32,0l.89-.89a.93.93,0,0,0-1.32-1.32" transform="translate(-18.4 -17.75)"/>
    <path class="cls-1" d="M34.23,26.08l-.89.89a.94.94,0,0,0,1.32,1.33l.89-.9a.93.93,0,1,0-1.32-1.32" transform="translate(-18.4 -17.75)"/>
    <path class="cls-1" d="M38,31.61l.89-.89a.94.94,0,1,0-1.32-1.33l-.89.89A.94.94,0,0,0,38,31.61" transform="translate(-18.4 -17.75)"/>
    <path class="cls-1" d="M41.28,34.92l.9-.89a.94.94,0,0,0-1.33-1.33l-.89.9a.94.94,0,0,0,0,1.32.94.94,0,0,0,1.32,0" transform="translate(-18.4 -17.75)"/>
    <path class="cls-1" d="M32.06,31.56l-.89.89a.94.94,0,0,0,.66,1.6,1,1,0,0,0,.67-.28l.89-.89a.94.94,0,1,0-1.33-1.32" transform="translate(-18.4 -17.75)"/>
    <path class="cls-1" d="M35.38,34.87l-.9.89a1,1,0,0,0,0,1.33,1,1,0,0,0,.67.27.93.93,0,0,0,.66-.27l.89-.9a.93.93,0,0,0-1.32-1.32" transform="translate(-18.4 -17.75)"/>
    <path class="cls-1" d="M72.78,66l0,0a.94.94,0,0,0,.67,1.58,1,1,0,0,0,.69-.29l0-.06a.93.93,0,0,0,0-1.32,1,1,0,0,0-1.33,0" transform="translate(-18.4 -17.75)"/>
    <path class="cls-1" d="M75,64.12a.94.94,0,0,0-1.36-1.29l-.05.05a1,1,0,0,0,0,1.33.92.92,0,0,0,.64.25.9.9,0,0,0,.68-.29Z" transform="translate(-18.4 -17.75)"/>
    <path class="cls-1" d="M70.41,63.73l0,.05a.94.94,0,0,0,1.36,1.29l0,0a1,1,0,0,0,0-1.33.93.93,0,0,0-1.32,0" transform="translate(-18.4 -17.75)"/>
    <path class="cls-1" d="M26.51,61.24l0,0a.94.94,0,0,0,0,1.33,1,1,0,0,0,.65.26.93.93,0,0,0,.68-.3l0,0a.93.93,0,0,0,0-1.32.94.94,0,0,0-1.33,0" transform="translate(-18.4 -17.75)"/>
    <path class="cls-1" d="M28.74,59.39a1,1,0,0,0,0-1.33.93.93,0,0,0-1.32,0l-.05,0a.93.93,0,0,0,0,1.32.89.89,0,0,0,.64.26.94.94,0,0,0,.68-.29Z" transform="translate(-18.4 -17.75)"/>
    <path class="cls-1" d="M24.14,59l-.05,0a.94.94,0,0,0,.68,1.58.91.91,0,0,0,.68-.3l.05,0A.93.93,0,1,0,24.14,59" transform="translate(-18.4 -17.75)"/>
    <path class="cls-1" d="M76,38H71.34a12.75,12.75,0,0,0,1.33-1.14c1.82-1.82,2.29-3.78,1.4-5.84-.07-.16-.16-.33-.24-.49a7.05,7.05,0,0,0,1.41.15,4,4,0,0,0,1.85-.4,1.92,1.92,0,0,0,1.07-1.69c0-1.82-1.74-2.07-2.64-2.18a1.65,1.65,0,0,0,.6-2c-.53-1.18-1.93-1-2.86-.87a5.86,5.86,0,0,1-1,.08,5.86,5.86,0,0,1,.08-1c.12-.93.32-2.33-.87-2.86a1.64,1.64,0,0,0-2,.6c-.11-.9-.36-2.64-2.18-2.64a1.9,1.9,0,0,0-1.69,1.07,4.88,4.88,0,0,0-.25,3.27c-.16-.09-.33-.18-.49-.25-2.06-.89-4-.42-5.84,1.4a14.05,14.05,0,0,0-2.19,3,17.73,17.73,0,0,0-2.34,7.66,9.73,9.73,0,0,0,0,1.08A7.89,7.89,0,0,0,55.24,38H43.68A11.93,11.93,0,0,0,45,36.87c1.82-1.82,2.29-3.78,1.39-5.84-.07-.16-.15-.33-.24-.49a7.15,7.15,0,0,0,1.42.15,3.93,3.93,0,0,0,1.84-.4,1.91,1.91,0,0,0,1.08-1.69c0-1.82-1.75-2.07-2.64-2.18a1.65,1.65,0,0,0,.6-2c-.53-1.19-1.94-1-2.87-.87a5.78,5.78,0,0,1-1,.08,6,6,0,0,1,.09-1c.12-.93.31-2.33-.87-2.86a1.63,1.63,0,0,0-2,.6c-.11-.9-.37-2.64-2.19-2.64A1.9,1.9,0,0,0,38,18.82a4.88,4.88,0,0,0-.25,3.27,4.62,4.62,0,0,0-4.61-.15A.93.93,0,0,0,34,23.6c2.06-1.08,4,.67,7,3.66,3.91,3.9,5.24,5.75,2.7,8.28A13.21,13.21,0,0,1,40,38H29.8a5.14,5.14,0,0,1-1.07-3.17q0-.45,0-.9a16,16,0,0,1,2.1-6.83,14.43,14.43,0,0,1,.78-1.23.94.94,0,0,0-.22-1.31.93.93,0,0,0-1.3.22,14.6,14.6,0,0,0-.89,1.4,17.73,17.73,0,0,0-2.34,7.66,9.73,9.73,0,0,0,0,1.08A8.07,8.07,0,0,0,27.58,38H24.75a6.35,6.35,0,0,0-6.35,6.34v2.26c0,2.54.3,5.6,2.09,7.58a106.65,106.65,0,0,0,1.36,23.09,1,1,0,0,0,.86.78c9,.64,18,1,27.09,1s18.1-.33,27.09-1a1,1,0,0,0,.86-.78,107.41,107.41,0,0,0,1.46-15,.94.94,0,0,0-.91-1,.92.92,0,0,0-1,.91c-.07,2.39-.22,4.8-.45,7.21a404.79,404.79,0,0,1-54.18,0,104.08,104.08,0,0,1-.41-13.89,8.44,8.44,0,0,0,3.65.72c3.35,0,5.2-2.06,6.83-3.87,1.3-1.44,2.41-2.68,4.06-2.68,1.41,0,2.43,1.11,3.71,2.52,2,2.2,4.5,4.94,9.82,4.94s7.81-2.74,9.82-4.94c1.28-1.41,2.29-2.52,3.71-2.52,1.64,0,2.76,1.24,4.06,2.68,1.63,1.81,3.48,3.87,6.82,3.87A9.57,9.57,0,0,0,77.31,56c0,.85,0,1.7.06,2.56a.93.93,0,0,0,.93.92h0a.93.93,0,0,0,.93-.94c0-1.12,0-2.25-.09-3.36,2.77-1.83,3.18-5.53,3.18-8.52V44.35A6.34,6.34,0,0,0,76,38M40.66,24.32c-1.51-2.36-1.33-4.4-1-4.7h.07A3.1,3.1,0,0,1,40,20.68a3.06,3.06,0,0,0,.67,1.89,1.26,1.26,0,0,0,1,.4,1.72,1.72,0,0,0,1.21-.85c0,.1,0,.2,0,.28A3,3,0,0,0,43.26,25a2.94,2.94,0,0,0,2.59.42l.29,0a1.74,1.74,0,0,0-.86,1.2,1.31,1.31,0,0,0,.4,1,3.08,3.08,0,0,0,1.9.66,3.29,3.29,0,0,1,1,.23.2.2,0,0,1,0,.08c-.3.35-2.33.52-4.69-1-.52-.56-1.07-1.12-1.62-1.66s-1.1-1.1-1.66-1.62m26.67-4.7h.07a3.07,3.07,0,0,1,.24,1.05,3.05,3.05,0,0,0,.66,1.89,1.27,1.27,0,0,0,1,.4,1.7,1.7,0,0,0,1.2-.85c0,.1,0,.2,0,.28A2.93,2.93,0,0,0,70.92,25a2.93,2.93,0,0,0,2.59.42l.28,0a1.7,1.7,0,0,0-.85,1.2,1.27,1.27,0,0,0,.4,1,3.05,3.05,0,0,0,1.89.66,3.36,3.36,0,0,1,1,.23.2.2,0,0,1,0,.08c-.31.35-2.34.52-4.7-1-.52-.56-1.07-1.12-1.62-1.66s-1.1-1.1-1.66-1.62c-1.5-2.36-1.33-4.4-1-4.7M56.38,34.84q0-.45,0-.9a16.16,16.16,0,0,1,2.1-6.83,12.68,12.68,0,0,1,1.88-2.55c1.29-1.29,2.42-1.59,3.77-1s3,2.19,4.52,3.7a18.05,18.05,0,0,1,3.7,4.52c.59,1.35.29,2.47-1,3.76A13.42,13.42,0,0,1,67.67,38H57.45a5.27,5.27,0,0,1-1.07-3.17M49.8,72.21c9,0,18-.3,26.89-.89-.18,1.65-.41,3.29-.67,4.92a376.13,376.13,0,0,1-52.44,0c-.26-1.64-.49-3.27-.67-4.92,8.92.59,17.9.89,26.89.89m30.66-25.6c0,5.53-1.64,7.78-5.68,7.78-2.5,0-3.93-1.58-5.43-3.25s-3-3.31-5.45-3.31c-2.24,0-3.63,1.53-5.1,3.14-1.85,2-3.94,4.32-8.43,4.32S43.78,53,41.94,51c-1.47-1.61-2.86-3.14-5.1-3.14-2.48,0-4,1.68-5.45,3.31S28.46,54.39,26,54.39c-4,0-5.67-2.25-5.67-7.78V44.35a4.47,4.47,0,0,1,4.47-4.47H76a4.47,4.47,0,0,1,4.47,4.47Z" transform="translate(-18.4 -17.75)"/>
  </g>
</svg>
