<svg id="Layer_1" data-name="Layer 1" xmlns="http://www.w3.org/2000/svg" viewBox="0 0 12.26 16.83"><defs><style>.cls-1{fill:#1c4183;}</style></defs><title>phone</title><path class="cls-1" d="M13.47,7.86A1.71,1.71,0,0,0,12,7h0a.22.22,0,1,0,0,.43,1.27,1.27,0,0,1,1.1.64,1.3,1.3,0,0,1,0,1.28.21.21,0,0,0,.08.29.21.21,0,0,0,.29-.08,1.72,1.72,0,0,0,0-1.7" transform="translate(-4.01 -1.47)"/><path class="cls-1" d="M14.34,7.36a2.71,2.71,0,0,0-2.93-1.3.21.21,0,0,0-.16.26.21.21,0,0,0,.25.16,2.28,2.28,0,0,1,2.18,3.77.21.21,0,1,0,.31.29,2.7,2.7,0,0,0,.35-3.18" transform="translate(-4.01 -1.47)"/><path class="cls-1" d="M13.31,5.25a3.69,3.69,0,0,0-2.43-.08.22.22,0,0,0-.15.27.21.21,0,0,0,.27.14,3.28,3.28,0,0,1,3.21,5.55.22.22,0,0,0,0,.31.23.23,0,0,0,.31,0,3.71,3.71,0,0,0-1.19-6.2" transform="translate(-4.01 -1.47)"/><path class="cls-1" d="M15,13.71a1.15,1.15,0,0,0-.69-.53,1.12,1.12,0,0,0-.86.11l-1,.57h0a1.49,1.49,0,0,1-1,.07c-.69-.18-1.77-.84-3-3s-1.21-3.24-1-3.91a1.5,1.5,0,0,1,.61-1H8l1-.57a1.1,1.1,0,0,0,.52-.69A1.12,1.12,0,0,0,9.38,4L8.27,2a1.14,1.14,0,0,0-1.54-.42L5,2.62c-.38.22-1,1.14-1,2.79a14,14,0,0,0,2.16,6.85A14.39,14.39,0,0,0,11,17.59a4.82,4.82,0,0,0,2.29.71,1.44,1.44,0,0,0,.65-.12l1.73-1a1.13,1.13,0,0,0,.41-1.54ZM6.94,2a.69.69,0,0,1,.34-.09.58.58,0,0,1,.19,0,.69.69,0,0,1,.43.32L9,4.18a.7.7,0,0,1,.07.53.73.73,0,0,1-.32.43L6.92,2Zm6.82,15.82a3.32,3.32,0,0,1-2.51-.59,14.08,14.08,0,0,1-4.7-5.17A13.79,13.79,0,0,1,4.44,5.42,3.25,3.25,0,0,1,5.21,3l1.34-.77L8.39,5.35l-.61.36A1.89,1.89,0,0,0,7,6.86c-.3,1.1.06,2.55,1.07,4.31s2.15,2.89,3.27,3.17a1.92,1.92,0,0,0,1.37-.11l.58-.34L15.13,17Zm1.74-1-1.85-3.13h0a.66.66,0,0,1,.53-.06.73.73,0,0,1,.43.32l1.11,1.93a.7.7,0,0,1-.25,1" transform="translate(-4.01 -1.47)"/></svg>