<svg id="Layer_1" data-name="Layer 1" xmlns="http://www.w3.org/2000/svg" viewBox="0 0 53.08 56.82">
  <defs>
    <style>
      .cls-1 {
        fill: #fff;
      }
    </style>
  </defs>
  <title>sal-seleccionada</title>
  <g>
    <path class="cls-1" d="M54.07,5.68H28.71c-1.19-2.56-3.3-3.62-7.07-3.62C17,2.06,11.7,5.14,11.7,9.25c0,2,1.18,3.82,3.32,5.23a12.41,12.41,0,0,0,6.61,2c3.77,0,5.88-1.06,7.06-3.62h8.44a1.11,1.11,0,0,0,0-2.22H28a1.12,1.12,0,0,0-1.05.74c-.57,1.57-1.36,2.88-5.27,2.88a10.24,10.24,0,0,1-5.39-1.6,4.39,4.39,0,0,1-2.32-3.37c0-2.51,3.82-5,7.72-5s4.71,1.31,5.28,2.89a1.13,1.13,0,0,0,1,.73h26.1c.54,0,1,.38,1,.78V9.82c0,.41-.5.78-1,.78h-7a1.11,1.11,0,1,0,0,2.22h7a3.18,3.18,0,0,0,3.26-3V8.68a3.18,3.18,0,0,0-3.26-3" transform="translate(-4.25 -2.06)"/>
    <path class="cls-1" d="M28,30.83a1.11,1.11,0,0,0,2.22,0V26.65a1.11,1.11,0,0,0-2.22,0Z" transform="translate(-4.25 -2.06)"/>
    <path class="cls-1" d="M29.08,22.8a1.11,1.11,0,0,0,1.11-1.11v-2a1.11,1.11,0,0,0-2.22,0v2a1.11,1.11,0,0,0,1.11,1.11" transform="translate(-4.25 -2.06)"/>
    <path class="cls-1" d="M24,25a1.11,1.11,0,0,0,1.11-1.11V19.71a1.11,1.11,0,0,0-2.22,0v4.18A1.11,1.11,0,0,0,24,25" transform="translate(-4.25 -2.06)"/>
    <path class="cls-1" d="M22.91,31.84a1.11,1.11,0,0,0,2.22,0v-3a1.11,1.11,0,1,0-2.22,0Z" transform="translate(-4.25 -2.06)"/>
    <path class="cls-1" d="M17.86,34.38a1.11,1.11,0,0,0,2.22,0V26.54a1.11,1.11,0,0,0-2.22,0Z" transform="translate(-4.25 -2.06)"/>
    <path class="cls-1" d="M19,22.68a1.11,1.11,0,0,0,1.11-1.11V19.71a1.11,1.11,0,0,0-2.22,0v1.86A1.1,1.1,0,0,0,19,22.68" transform="translate(-4.25 -2.06)"/>
    <path class="cls-1" d="M13.91,30.92A1.11,1.11,0,0,0,15,29.81V19.71a1.11,1.11,0,0,0-2.22,0v10.1a1.11,1.11,0,0,0,1.11,1.11" transform="translate(-4.25 -2.06)"/>
    <path class="cls-1" d="M12.8,37.94a1.11,1.11,0,0,0,2.22,0V34.78a1.11,1.11,0,0,0-2.22,0Z" transform="translate(-4.25 -2.06)"/>
    <path class="cls-1" d="M27,42.12a1.11,1.11,0,0,0-1.11,1.11h0A1.11,1.11,0,1,0,27,42.12" transform="translate(-4.25 -2.06)"/>
    <path class="cls-1" d="M38.07,51.49A1.11,1.11,0,0,0,37,52.6h0a1.11,1.11,0,1,0,1.11-1.12" transform="translate(-4.25 -2.06)"/>
    <path class="cls-1" d="M15.92,51.49a1.11,1.11,0,0,0-1.11,1.11h0a1.11,1.11,0,1,0,1.11-1.12" transform="translate(-4.25 -2.06)"/>
    <path class="cls-1" d="M42.23,46.65a8.17,8.17,0,0,0-6.93-4.78,9,9,0,0,0-2.9-3.81A8.89,8.89,0,0,0,27,36.24a9,9,0,0,0-8.3,5.63,8.14,8.14,0,0,0-6.93,4.78c-3.33.25-5.89,3-7,5.88a5.39,5.39,0,0,0,.18,4.85,3.56,3.56,0,0,0,3.14,1.51H45.93a3.56,3.56,0,0,0,3.14-1.51,5.44,5.44,0,0,0,.18-4.84c-1.13-2.85-3.69-5.64-7-5.89m5,9.48c-.09.13-.36.54-1.3.54H8.06c-.94,0-1.21-.41-1.3-.54a3.27,3.27,0,0,1,0-2.78c.87-2.2,2.94-4.5,5.46-4.5h.21a1.13,1.13,0,0,0,1.11-.76,5.89,5.89,0,0,1,5.85-4,1.13,1.13,0,0,0,1.12-.8,6.72,6.72,0,0,1,12.89,0,1.13,1.13,0,0,0,1.11.8,5.9,5.9,0,0,1,5.86,4,1.12,1.12,0,0,0,1.11.76c2.61-.14,4.77,2.23,5.66,4.49a3.24,3.24,0,0,1,0,2.78" transform="translate(-4.25 -2.06)"/>
    <path class="cls-1" d="M22.48,46.66a1.11,1.11,0,0,0-1.11,1.11h0a1.11,1.11,0,1,0,1.11-1.11" transform="translate(-4.25 -2.06)"/>
    <path class="cls-1" d="M31.51,46.66a1.11,1.11,0,0,0-1.11,1.11h0a1.11,1.11,0,1,0,1.11-1.11" transform="translate(-4.25 -2.06)"/>
    <path class="cls-1" d="M27,51.49a1.11,1.11,0,0,0-1.11,1.11h0A1.11,1.11,0,1,0,27,51.49" transform="translate(-4.25 -2.06)"/>
    <path class="cls-1" d="M42.12,12.82A1.11,1.11,0,1,0,41,11.71a1.11,1.11,0,0,0,1.11,1.11Z" transform="translate(-4.25 -2.06)"/>
  </g>
</svg>
