<svg id="Layer_1" data-name="Layer 1" xmlns="http://www.w3.org/2000/svg" viewBox="0 0 54.65 44.08">
  <defs>
    <style>
      .cls-1 {
        fill: #fff;
      }
    </style>
  </defs>
  <title>sal-marina</title>
  <g>
    <path class="cls-1" d="M47.57,49.47,46,49.21a.81.81,0,0,0-.93.66.8.8,0,0,0,.66.92l1.65.27h.12a.8.8,0,0,0,.11-1.59" transform="translate(-3.02 -6.98)"/>
    <path class="cls-1" d="M57,44.34a56.3,56.3,0,0,1-17.26-5.65c-6.05-3.12-10.45-6.75-12.38-10.22A6.87,6.87,0,0,1,26.79,22a5.08,5.08,0,0,1,3.15-2.69A8.06,8.06,0,0,1,31.89,19l.21.3a3.13,3.13,0,0,0,2.64,1.52,3.69,3.69,0,0,0,.72-.08,4.16,4.16,0,0,0,3.08-3.36c.25-1.66-.67-3.21-2.51-4.24-.21-.12-.41-.23-.62-.33a7.22,7.22,0,0,0-2.83-4.33c-2-1.45-4.85-1.82-8.33-1.1-4.72,1-9.38,3.74-14.24,8.46a.8.8,0,0,0,0,1.13.82.82,0,0,0,1.14,0c4.63-4.5,9-7.13,13.44-8,3-.62,5.4-.35,7.06.82a5.52,5.52,0,0,1,1.81,2.17c-.3-.11-.61-.21-.91-.3a.79.79,0,0,0-1,.54.8.8,0,0,0,.53,1,15,15,0,0,1,3.17,1.35c1.27.71,1.87,1.62,1.72,2.62a2.57,2.57,0,0,1-1.85,2,1.5,1.5,0,0,1-1.68-.75,14.27,14.27,0,0,0-5.84-5.08,11.63,11.63,0,0,0-1.65-.59,13.93,13.93,0,0,1,2.9-.14.8.8,0,0,0,.84-.76.79.79,0,0,0-.75-.84c-4.38-.25-9,1.41-13.51,4.79a33.72,33.72,0,0,0-5.27,5A20.25,20.25,0,0,0,6.6,22c.64-.84,1.43-1.8,2.34-2.81a.8.8,0,0,0-.07-1.13.8.8,0,0,0-1.13.06,44.08,44.08,0,0,0-4.6,6,.77.77,0,0,0,0,.88.81.81,0,0,0,1.12.19,19,19,0,0,1,7.19-3.18c1.56-.31,3.74-.45,4.74.2a1.28,1.28,0,0,1,.66,1.61c-.34.76-1.54,1.28-3.43.73a8,8,0,0,0-5.15,0,5.61,5.61,0,0,0-3,2.74,6.72,6.72,0,0,0-.56,4.25A6.26,6.26,0,0,0,6.52,35a9.14,9.14,0,0,0-.84,2.2A9.84,9.84,0,0,0,7,44.39a14.6,14.6,0,0,0,2.27,3,.81.81,0,0,0,.56.22.78.78,0,0,0,.57-.24.79.79,0,0,0,0-1.13c0-.05-4.23-4.17-3.13-8.72a6.56,6.56,0,0,1,3.92-4.69,10.69,10.69,0,0,1,6-.56c2.52.47,4.38,1.74,4.23,2.89a.84.84,0,0,1-.33.62,1.25,1.25,0,0,1-1,.12H20a4.31,4.31,0,0,0-1.09-1,.8.8,0,0,0-.89,1.33,2,2,0,0,1,1,2A2.07,2.07,0,0,1,17.8,39.9a1.33,1.33,0,0,1-1.43-.46c-1.77-1.84-4-2.64-5.71-2.09a3,3,0,0,0-2.12,2.47.79.79,0,0,0,.66.91.8.8,0,0,0,.92-.66,1.4,1.4,0,0,1,1-1.19c1.4-.44,3.07.62,4.08,1.67a3.07,3.07,0,0,0,2.2,1,3,3,0,0,0,.88-.14,3.53,3.53,0,0,0,1.95-1.68,23.92,23.92,0,0,0,4,3.33c3.15,2.13,8.8,5.08,17.79,7a.47.47,0,0,0,.17,0,.79.79,0,0,0,.78-.63.8.8,0,0,0-.61-.95c-8.67-1.88-14.1-4.69-17.13-6.72a17.76,17.76,0,0,1-4.53-4l0,0c0-.07,0-.15,0-.22A2.59,2.59,0,0,0,22,37.13a2.44,2.44,0,0,0,1-1.74,3.32,3.32,0,0,0-1.6-3.08,9.71,9.71,0,0,0-3.93-1.58c-3.53-.66-7.62.09-10,2.9a5,5,0,0,1-.75-5.55c.5-1,2.11-3.14,6.31-1.93,2.81.81,4.7-.22,5.33-1.61a2.84,2.84,0,0,0-1.25-3.61,7.15,7.15,0,0,0-4.35-.67A33.72,33.72,0,0,1,16.42,17a25.69,25.69,0,0,1,4-2.52h0a8.27,8.27,0,0,1,6.46.28A12.14,12.14,0,0,1,30.7,17.5a7.07,7.07,0,0,0-5.36,3.88,8.37,8.37,0,0,0,.59,7.86C30.4,37.3,45.77,44.5,56.76,45.92h.11a.8.8,0,0,0,.79-.7.79.79,0,0,0-.69-.89" transform="translate(-3.02 -6.98)"/>
    <path class="cls-1" d="M22,27.05a.8.8,0,0,0-.51,1c.11.34.24.69.38,1a.79.79,0,0,0,.74.5.8.8,0,0,0,.3-.06.79.79,0,0,0,.44-1c-.12-.31-.24-.63-.34-.94a.8.8,0,0,0-1-.51" transform="translate(-3.02 -6.98)"/>
    <path class="cls-1" d="M25.66,17.34a.8.8,0,1,0-.9-1.32,10,10,0,0,0-4,8.77.81.81,0,0,0,.8.75h0a.8.8,0,0,0,.75-.85,8.43,8.43,0,0,1,3.26-7.35" transform="translate(-3.02 -6.98)"/>
    <path class="cls-1" d="M21.43,48.15c-.49-.23-1-.48-1.44-.73a.8.8,0,1,0-.78,1.39c.5.28,1,.54,1.54.79a.83.83,0,0,0,.34.07.81.81,0,0,0,.73-.46.8.8,0,0,0-.39-1.06" transform="translate(-3.02 -6.98)"/>
    <path class="cls-1" d="M17.21,45.57a15.37,15.37,0,0,1-3.86-4.24A.8.8,0,0,0,12.27,41a.81.81,0,0,0-.34,1.08,16.62,16.62,0,0,0,4.29,4.75.84.84,0,0,0,.5.17.76.76,0,0,0,.62-.31.79.79,0,0,0-.13-1.12" transform="translate(-3.02 -6.98)"/>
  </g>
</svg>
