<svg id="Layer_1" data-name="Layer 1" xmlns="http://www.w3.org/2000/svg" viewBox="0 0 63.85 63.85">
  <defs>
    <style>
      .cls-1 {
        fill: #00407e;
      }
    </style>
  </defs>
  <title>salazonblue</title>
  <g>
    <path class="cls-1" d="M80,65.71a5.29,5.29,0,0,0-.9-.74.93.93,0,1,0-1,1.56,3.92,3.92,0,0,1,1.74,3.24,3.87,3.87,0,0,1-4.06,3.88.94.94,0,0,0-.71.28.88.88,0,0,0-.27.7,3.88,3.88,0,0,1-6.62,2.93,3.87,3.87,0,0,1,0-5.49c.51-.51,1.31-1.08.57-1.82L65,66.55l2.64-2.64,3.71,3.7a1,1,0,0,0,1.42-.11,3,3,0,0,1,.4-.47,3.73,3.73,0,0,1,1.57-1,.94.94,0,1,0-.57-1.79A5.77,5.77,0,0,0,72,65.58l-3.31-3.31a21.49,21.49,0,0,1-1-3.22,44.69,44.69,0,0,1-.32-6.64,44.84,44.84,0,0,0-.12-4.92c-.8-8.29-5-15.55-8.38-20.19a69.83,69.83,0,0,0-7.16-8.14c-2.48-2.48-6.46-3.09-11.22-1.73A32.6,32.6,0,0,0,27,25.87a32.45,32.45,0,0,0-8.43,13.48c-1.37,4.75-.75,8.74,1.73,11.22a68.94,68.94,0,0,0,8.13,7.15,47.72,47.72,0,0,0,12.43,6.65,36.62,36.62,0,0,0,4,1.13,31.22,31.22,0,0,0,6.61.74,62.39,62.39,0,0,1,8.75.31,20.94,20.94,0,0,1,3.17,1l3.36,3.32a5.76,5.76,0,0,0,8.26,8,5.85,5.85,0,0,0,1.65-3.4A5.81,5.81,0,0,0,80,73.85a5.75,5.75,0,0,0,0-8.14M20.33,39.86a30.66,30.66,0,0,1,8-12.67,30.5,30.5,0,0,1,12.67-8,15,15,0,0,1,4.14-.64,7.17,7.17,0,0,1,5.24,1.89c2,2,2.42,5.3,1.25,9.38a30.76,30.76,0,0,1-8,12.67,30.6,30.6,0,0,1-12.67,8c-4.07,1.17-7.4.73-9.38-1.25s-2.42-5.3-1.25-9.38M60.41,64.69c-.62-.08-1.23-.15-1.84-.2-1.76-.15-3.52-.17-5.29-.15a33.28,33.28,0,0,1-10.14-1.2,43.43,43.43,0,0,1-13.61-6.91c-1.59-1.15-3-2.29-4.13-3.31a10.93,10.93,0,0,0,1.42.09,17.21,17.21,0,0,0,4.66-.71A32.6,32.6,0,0,0,45,43.86a32.45,32.45,0,0,0,8.43-13.48A15.57,15.57,0,0,0,54,24.31c1,1.15,2.15,2.54,3.31,4.13,3.23,4.44,7.25,11.38,8,19.23.38,3.87-.09,7.77.46,11.64a12.44,12.44,0,0,0,.85,2.95l-3.29,3.29a12.69,12.69,0,0,0-2.94-.86" transform="translate(-17.82 -16.72)"/>
    <path class="cls-1" d="M32,48.33a28.19,28.19,0,0,0,10.5-6.9,28.41,28.41,0,0,0,6.9-10.49c1.25-3.72.92-6.78-.92-8.62-3.69-3.69-12.08-1.06-19.12,6a35.25,35.25,0,0,0-3,3.41A1,1,0,0,0,26.58,33a.94.94,0,0,0,1.31-.18,32.66,32.66,0,0,1,2.82-3.22c6.09-6.08,13.63-8.82,16.47-6,1.3,1.3,1.47,3.74.47,6.7a26.39,26.39,0,0,1-6.45,9.77,26.48,26.48,0,0,1-9.77,6.45c-3,1-5.4.82-6.69-.47-1.76-1.76-1.43-5.5.87-9.75a.93.93,0,0,0-.38-1.27,1,1,0,0,0-1.27.38c-2.75,5.09-2.95,9.56-.55,12a6.18,6.18,0,0,0,4.52,1.67,13,13,0,0,0,4.1-.75" transform="translate(-17.82 -16.72)"/>
    <path class="cls-1" d="M38.61,35a6.89,6.89,0,0,0,4.67-2.54c2.22-2.42,2.8-5.24,1.35-6.57a3,3,0,0,0-3.21-.34,8.45,8.45,0,0,0-3.21,2.26C36,30.22,35.42,33,36.86,34.37a2.51,2.51,0,0,0,1.75.63m1-5.93a6.71,6.71,0,0,1,2.47-1.76c.82-.3,1.59-.24,1.48.8a5.81,5.81,0,0,1-1.64,3.08c-1.57,1.72-3.31,2.22-3.77,1.8s-.11-2.2,1.46-3.92" transform="translate(-17.82 -16.72)"/>
  </g>
</svg>
