<svg id="Layer_1" data-name="Layer 1" xmlns="http://www.w3.org/2000/svg" viewBox="0 0 164.36 161.67">
  <defs>
    <style>
      .cls-1 {
        fill: #fff;
      }
    </style>
  </defs>
  <title>salazones</title>
  <g>
    <path class="cls-1" d="M167.18,130.53a3,3,0,0,0-2.23-1.17,32.32,32.32,0,0,0-24.06,11,32.23,32.23,0,0,0-51.33,3.65,2.68,2.68,0,0,0,0,2.95,32.24,32.24,0,0,0,51.33,3.64,32.34,32.34,0,0,0,24.06,11h0a2.68,2.68,0,0,0,2.22-1.16,2.73,2.73,0,0,0,.3-2.49,34.56,34.56,0,0,1,0-25,2.71,2.71,0,0,0-.3-2.51m-72.08,15a26.83,26.83,0,0,1,20.05-10.7,39.26,39.26,0,0,1,0,21.39A26.85,26.85,0,0,1,95.1,145.53m25.7,10.41a44.93,44.93,0,0,0,0-20.82,27,27,0,0,1,17.32,10.41,27,27,0,0,1-17.32,10.41m40.35.06a27.06,27.06,0,0,1-17.49-10.47,27,27,0,0,1,17.49-10.47,39.78,39.78,0,0,0,0,20.94" transform="translate(-19.64 -18.89)"/>
    <path class="cls-1" d="M170.53,110.5H89.69A13.49,13.49,0,0,0,76.22,124v6.42a10.69,10.69,0,0,0-5.93-3.5A17.65,17.65,0,0,1,72,117l1.29-2.58A2.7,2.7,0,0,0,70,110.63a22.94,22.94,0,0,0-15,16.33,10.78,10.78,0,0,0,2.42,21.26,10.55,10.55,0,0,0,5.39-1.5,10.56,10.56,0,0,0,13.47-2.22v22.58a13.48,13.48,0,0,0,13.47,13.47h80.84A13.48,13.48,0,0,0,184,167.08V140.14a2.7,2.7,0,1,0-5.39,0v26.94a8.09,8.09,0,0,1-8.08,8.09H89.69a8.09,8.09,0,0,1-8.08-8.09V124a8.08,8.08,0,0,1,8.08-8.08h80.84a8.08,8.08,0,0,1,8.08,8.08v5.39a2.7,2.7,0,0,0,5.39,0V124a13.49,13.49,0,0,0-13.47-13.47m-105.18,9a23.41,23.41,0,0,0-.5,7.78,10.74,10.74,0,0,0-2.11.93,10.38,10.38,0,0,0-2.27-1,17.7,17.7,0,0,1,4.88-7.73M52,137.44a5.38,5.38,0,0,1,5.16-5.36l.27,0A5.39,5.39,0,1,1,52,137.44m16.17,5.39a5,5,0,0,1-1.39-.2,10.38,10.38,0,0,0,0-10.37,5.38,5.38,0,1,1,1.39,10.57" transform="translate(-19.64 -18.89)"/>
    <path class="cls-1" d="M70.83,175.17H41.19a8.09,8.09,0,0,1-8.08-8.09V159h35a2.7,2.7,0,0,0,0-5.39h-35v-48.5h72.75a2.69,2.69,0,0,0,2.69-2.69V88.94a8.08,8.08,0,1,0,0-16.16H52a2.7,2.7,0,0,0,0,5.39h56.58a2.7,2.7,0,1,1,0,5.39H27.72a2.7,2.7,0,0,1,0-5.39H41.19a2.7,2.7,0,1,0,0-5.39H27.72a8.08,8.08,0,0,0,0,16.16v78.14a13.5,13.5,0,0,0,13.47,13.48H70.83a2.7,2.7,0,1,0,0-5.39m32.34-75.45H33.11V88.94h70.06Z" transform="translate(-19.64 -18.89)"/>
    <path class="cls-1" d="M183.07,19.55a2.65,2.65,0,0,0-2.16-.63l-8.26,1.17a85,85,0,0,1-20.6.44l-6.42-.64a90.85,90.85,0,0,0-20.32.25l-1.38.17a85.64,85.64,0,0,1-20.05.14L90,18.91a2.69,2.69,0,0,0-2.8,3.67l5.21,13V45.83c0,.08,0,.15,0,.22a1.77,1.77,0,0,0,0,.23A102.65,102.65,0,0,1,93.8,65.54a2.7,2.7,0,0,0,.74,1.92,2.66,2.66,0,0,0,1.89.83h.06a2.69,2.69,0,0,0,2.69-2.63,107.79,107.79,0,0,0-1-17.13h80.32a46.89,46.89,0,0,1-.79,6.89,51,51,0,0,0-.3,18.51l.56,3.4a44.74,44.74,0,0,1,.54,5.15l-1.13-.38c-1.37-.46-2.76-.83-4.15-1.18V67.39a10.74,10.74,0,0,0-18.86-7.06c-.17-.18-.3-.38-.47-.56a10.71,10.71,0,0,0-15.72.56c-.16-.18-.29-.38-.46-.56a10.7,10.7,0,0,0-15.7.56c-.16-.18-.29-.38-.47-.56a10.78,10.78,0,0,0-18.4,7.62,2.7,2.7,0,0,0,5.4,0,5.39,5.39,0,1,1,10.77,0v23a2.7,2.7,0,0,0,2.7,2.7c.07,0,.13,0,.21,0h.27a56.46,56.46,0,0,0,16.75-4.29,51.28,51.28,0,0,1,36.42-1.52l2.93,1v16.92a2.7,2.7,0,1,0,5.39,0V84.9a51.87,51.87,0,0,0-.7-8.44l-.57-3.41A46,46,0,0,1,183,56.47a50.8,50.8,0,0,0,1-10.07V21.58a2.68,2.68,0,0,0-.93-2M146.28,62a5.39,5.39,0,0,1,5.39,5.39V79.74a56.33,56.33,0,0,0-10.78,2.62v-15A5.39,5.39,0,0,1,146.28,62m-16.17,0a5.39,5.39,0,0,1,5.39,5.39v17a50.92,50.92,0,0,1-10.78,2.88V67.39A5.39,5.39,0,0,1,130.11,62m26.95,17.24V67.39a5.39,5.39,0,1,1,10.77,0V79.83a56.24,56.24,0,0,0-10.77-.59M97.78,37.75h80.83v5.39H97.78ZM103.3,25.8a91,91,0,0,0,21.31-.14l1.38-.17a86,86,0,0,1,19.11-.24l6.42.64a90.67,90.67,0,0,0,21.9-.46l5.19-.74v7.67H96.91l-3-7.6Z" transform="translate(-19.64 -18.89)"/>
    <path class="cls-1" d="M119.33,105.11h27a2.7,2.7,0,0,0,0-5.39H119.33a2.7,2.7,0,0,0,0,5.39" transform="translate(-19.64 -18.89)"/>
    <path class="cls-1" d="M170.53,105.11a2.7,2.7,0,0,0,0-5.39H157.06a2.7,2.7,0,1,0,0,5.39Z" transform="translate(-19.64 -18.89)"/>
  </g>
</svg>
