<svg id="Layer_1" data-name="Layer 1" xmlns="http://www.w3.org/2000/svg" viewBox="0 0 56.24 69.25">
  <defs>
    <style>
      .cls-1 {
        fill: #00407e;
      }
    </style>
  </defs>
  <title>salsas</title>
  <g>
    <path class="cls-1" d="M32.15,46.64a3.28,3.28,0,0,0-1.48,2.75V71a3.51,3.51,0,0,0,3.51,3.51h11.2A3.51,3.51,0,0,0,48.88,71V49.39a3.29,3.29,0,0,0-1.47-2.75,13.76,13.76,0,0,0-15.26,0M45.38,72.51H34.18A1.48,1.48,0,0,1,32.7,71V49.39a1.26,1.26,0,0,1,.57-1.06,11.72,11.72,0,0,1,13,0,1.26,1.26,0,0,1,.57,1.06V71a1.48,1.48,0,0,1-1.47,1.48" transform="translate(-22.76 -15.47)"/>
    <path class="cls-1" d="M39.78,50.61A5.24,5.24,0,1,0,45,55.85a5.25,5.25,0,0,0-5.24-5.24m0,8.45A3.22,3.22,0,1,1,43,55.85a3.22,3.22,0,0,1-3.21,3.21" transform="translate(-22.76 -15.47)"/>
    <path class="cls-1" d="M42.46,66.68H37.09a1,1,0,0,0,0,2h5.37a1,1,0,0,0,0-2" transform="translate(-22.76 -15.47)"/>
    <path class="cls-1" d="M44,63.05H35.55a1,1,0,1,0,0,2H44a1,1,0,1,0,0-2" transform="translate(-22.76 -15.47)"/>
    <path class="cls-1" d="M78.64,41a6.27,6.27,0,0,0-3.77-3.81l-.38-.14L76,33a2.57,2.57,0,0,0-1.54-3.3l-1-.37,1.29-9.22a3,3,0,0,0-1.9-3.16l-3.52-1.28a2.94,2.94,0,0,0-3.48,1.2l-4.94,7.89-1-.37a2.59,2.59,0,0,0-3.31,1.55L55.07,30l-.39-.14A6.26,6.26,0,0,0,48.46,31a2.6,2.6,0,0,0-.93-.17H46.45l-1.94-9.11a2.93,2.93,0,0,0-2.86-2.31H37.9A2.94,2.94,0,0,0,35,21.69L33.1,30.8H32a2.59,2.59,0,0,0-2.58,2.58v4.34H29a6.27,6.27,0,0,0-6.15,7.47l1.26,6.41a49.89,49.89,0,0,1,.35,17.19,1,1,0,0,0,2,.31,51.94,51.94,0,0,0-.37-17.89L24.87,44.8a4.24,4.24,0,0,1,4.16-5H50.52a4.21,4.21,0,0,1,3.1,1.35l0,0,.15.17a4.22,4.22,0,0,1,.89,3.51l-.63,3.25h0l-.61,3.1h0v.05a51.82,51.82,0,0,0,0,20l1.26,6.41a4.25,4.25,0,0,1-4.16,5.06H29a4.25,4.25,0,0,1-4.16-5.06l.77-3.91a1,1,0,0,0-2-.39l-.77,3.91A6.26,6.26,0,0,0,29,84.71H50.52a6.25,6.25,0,0,0,5.92-4.21l2.36.85a6.17,6.17,0,0,0,2.15.38,6.27,6.27,0,0,0,6.19-5.3l1-6.45a49.7,49.7,0,0,1,5.72-16.6,1,1,0,1,0-1.77-1,52,52,0,0,0-6,17.28l-1,6.45a4.23,4.23,0,0,1-5.63,3.33l-2.71-1a6.38,6.38,0,0,0-.12-1.22l-1.26-6.41c-.1-.55-.2-1.1-.29-1.65l2.33.85a3.51,3.51,0,0,0,4.49-2.1l7.4-20.33a3.31,3.31,0,0,0-.44-3.09,13.76,13.76,0,0,0-14.25-5.24,6.28,6.28,0,0,0-4.13-1.55h-.41V33.38a2.63,2.63,0,0,0-.19-1A4.2,4.2,0,0,1,54,31.75l1.34.49h0l17.51,6.37h0l1.34.49a4.23,4.23,0,0,1,2.18,6.17l-1.88,3.11a1,1,0,0,0,.35,1.4,1,1,0,0,0,.52.14,1,1,0,0,0,.87-.49l1.88-3.11A6.23,6.23,0,0,0,78.64,41M37,22.12a.91.91,0,0,1,.88-.71h3.75a.91.91,0,0,1,.88.71l1.85,8.68H35.17Zm11.06,15.6H31.47V33.38a.55.55,0,0,1,.55-.55H47.53a.55.55,0,0,1,.39.16h0a.55.55,0,0,1,.16.39ZM56,48.65a3.21,3.21,0,1,1,3.94,4.81,3.12,3.12,0,0,1-2.45.11,3.2,3.2,0,0,1-2-2.22Zm.79,6.83a5.34,5.34,0,0,0,1.8.32,5.25,5.25,0,1,0-2-10.1l.1-.51a6.21,6.21,0,0,0-.61-4.13,11.72,11.72,0,0,1,11.2,4.65,1.24,1.24,0,0,1,.17,1.19L60,67.24a1.47,1.47,0,0,1-1.89.88l-3.33-1.21c-.16-1.38-.26-2.77-.31-4.15l2.2.79a.83.83,0,0,0,.34.07A1,1,0,0,0,58,63a1,1,0,0,0-.61-1.3l-2.91-1.06c0-.56,0-1.12.05-1.69l4.86,1.77a1.07,1.07,0,0,0,.35.06,1,1,0,0,0,.34-2l-5.4-2c.07-.82.16-1.64.28-2.45a5.17,5.17,0,0,0,1.82,1.13M67.53,17.92a.89.89,0,0,1,1.07-.37l3.52,1.28a.9.9,0,0,1,.58,1l-1.23,8.79-8.65-3.15Zm6.54,14.36-1.49,4.08L57,30.68l1.49-4.08a.54.54,0,0,1,.7-.33l1.78.64h0l11,4h0l1.77.64a.56.56,0,0,1,.34.71" transform="translate(-22.76 -15.47)"/>
  </g>
</svg>
