<svg id="Layer_1" data-name="Layer 1" xmlns="http://www.w3.org/2000/svg" viewBox="0 0 60.39 72.16">
  <defs>
    <style>
      .cls-1 {
        fill: #00407e;
      }
    </style>
  </defs>
  <title>snacks</title>
  <g>
    <path class="cls-1" d="M63,47.1c0-9.58-8.43-17.37-18.78-17.37S25.42,37.52,25.42,47.1,33.84,64.47,44.2,64.47,63,56.68,63,47.1m-35.45,0c0-8.41,7.48-15.25,16.67-15.25S60.86,38.69,60.86,47.1,53.39,62.36,44.2,62.36,27.53,55.51,27.53,47.1" transform="translate(-19.61 -13.32)"/>
    <path class="cls-1" d="M46.63,55.75a10.66,10.66,0,0,0,1.77.15,9.32,9.32,0,0,0,6-2.13,11.06,11.06,0,0,0,4.33-8.61,7.84,7.84,0,0,0-3.58-6.22c-3.74-2.65-6.71,0-9.1,2-1.48,1.3-2.88,2.52-4.28,2.59a5.9,5.9,0,0,1-3.52-.92,6.21,6.21,0,0,0-5.79-.55l0,0c-1.14.32-2.79,1.31-2.76,4.31a6.75,6.75,0,0,0,2.84,5.64,10.6,10.6,0,0,0,6.2,1.81,12.68,12.68,0,0,0,3-.35,10.56,10.56,0,0,0,5,2.22M41.88,45.68c2.14-.11,3.88-1.63,5.56-3.11,2.55-2.23,4.22-3.51,6.49-1.91a5.79,5.79,0,0,1,2.69,4.58,9.08,9.08,0,0,1-3.57,6.9A7.39,7.39,0,0,1,47,53.66a8,8,0,0,1-5.54-3.54l-.29-.48A45.13,45.13,0,0,0,38,44.91a7.55,7.55,0,0,0,3.87.77m-8.14,4.69a4.72,4.72,0,0,1-2-4c0-1.87.83-2.16,1.27-2.27,2.13-.28,4.16,3.06,6.3,6.6l.29.47c.1.17.21.33.32.49a9.15,9.15,0,0,1-6.21-1.33" transform="translate(-19.61 -13.32)"/>
    <path class="cls-1" d="M80,71.92a9.85,9.85,0,0,0-4.5-7.8,6.34,6.34,0,0,0-6.38-.9,11.31,11.31,0,0,0-1.47.75,261.3,261.3,0,0,0-.6-41.3,14,14,0,0,0,1.67-4.26,2.93,2.93,0,0,0-1.39-3.21,2.89,2.89,0,0,0-3.42.33,2.44,2.44,0,0,1-1.78.72,2.92,2.92,0,0,1-2.25-1.16,4.8,4.8,0,0,0-7.45,0,2.76,2.76,0,0,1-4.5,0,4.8,4.8,0,0,0-7.45,0,2.94,2.94,0,0,1-2.25,1.16A2.9,2.9,0,0,1,36,15.09a4.82,4.82,0,0,0-7.46,0,2.92,2.92,0,0,1-2.24,1.16,2.44,2.44,0,0,1-1.78-.72,2.94,2.94,0,0,0-4.81,2.88,13.45,13.45,0,0,0,1.67,4.26c-.22,2.35-.42,4.7-.57,7a1.06,1.06,0,0,0,2.11.14c.14-2.18.32-4.4.53-6.61a173.87,173.87,0,0,1,41.54,0,258.8,258.8,0,0,1,.44,42.4l-1.3,1.12-.3.26a1.06,1.06,0,0,0,1.39,1.59l.3-.26c3.4-3,5.65-4.7,8.77-2.49A7.75,7.75,0,0,1,77.88,72c.12,3.13-1.69,6.65-4.72,9.17a9.91,9.91,0,0,1-8.11,2,10.66,10.66,0,0,1-7.37-4.73l-.38-.62a41.55,41.55,0,0,0-5.15-7.35l.52.28a9.93,9.93,0,0,0,5.83,1.48,7.05,7.05,0,0,0,3.16-1,1.06,1.06,0,0,0-1-1.84,4.91,4.91,0,0,1-2.23.73,7.78,7.78,0,0,1-4.71-1.23,7.74,7.74,0,0,0-7.26-.68l0,0a4.48,4.48,0,0,0-3.27,4A173.17,173.17,0,0,1,23.43,71a256.82,256.82,0,0,1-.78-37,1.06,1.06,0,0,0-2.11-.11,260.44,260.44,0,0,0,.83,37.77,13.86,13.86,0,0,0-1.68,4.28,2.92,2.92,0,0,0,1.38,3.21,2.88,2.88,0,0,0,3.43-.33,2.44,2.44,0,0,1,1.78-.72,2.91,2.91,0,0,1,2.25,1.17,4.82,4.82,0,0,0,7.45,0,2.75,2.75,0,0,1,4.49,0A4.9,4.9,0,0,0,44.2,81a4.5,4.5,0,0,0,2.2-.54l.16.12a13.48,13.48,0,0,0,7.84,2.28,16,16,0,0,0,3.93-.48,13.46,13.46,0,0,0,6.37,2.9,14.26,14.26,0,0,0,2.23.18,11.76,11.76,0,0,0,7.58-2.68c3.58-3,5.63-7,5.48-10.88M22.92,21.15A12.44,12.44,0,0,1,21.75,18a.84.84,0,0,1,.4-.93.78.78,0,0,1,1,.09,4.48,4.48,0,0,0,3.18,1.25A4.92,4.92,0,0,0,30,16.6a2.75,2.75,0,0,1,4.5,0,4.82,4.82,0,0,0,7.45,0,2.74,2.74,0,0,1,4.49,0,4.83,4.83,0,0,0,7.46,0,2.88,2.88,0,0,1,2.24-1.17,2.91,2.91,0,0,1,2.25,1.17,4.93,4.93,0,0,0,3.73,1.76,4.5,4.5,0,0,0,3.18-1.25.76.76,0,0,1,1-.08.84.84,0,0,1,.4.92,12.44,12.44,0,0,1-1.17,3.2,176.16,176.16,0,0,0-42.56,0m19,56.6a4.8,4.8,0,0,0-7.45,0,2.94,2.94,0,0,1-2.25,1.16A2.9,2.9,0,0,1,30,77.75,4.94,4.94,0,0,0,26.28,76a4.5,4.5,0,0,0-3.18,1.25.78.78,0,0,1-1,.09.83.83,0,0,1-.4-.93A12.17,12.17,0,0,1,23,73.06a177.76,177.76,0,0,0,20.07,1.29,8.45,8.45,0,0,0,1.7,4.5,2.4,2.4,0,0,1-.56.06A2.94,2.94,0,0,1,42,77.75m5.86,1.14a6.35,6.35,0,0,1-2.68-5.36c0-2.44,1-3,1.9-3.24,3-.41,5.63,4,8.47,8.67l.37.62c.22.35.46.69.71,1-2.85.44-6.38,0-8.77-1.71" transform="translate(-19.61 -13.32)"/>
  </g>
</svg>
