<svg width="80" height="80" viewBox="0 0 80 80" fill="none" xmlns="http://www.w3.org/2000/svg">
<path d="M38.75 15H45V17.5H38.75V15Z" fill="#F38941"/>
<path d="M65 37.5V50H40V46.125C39.9991 44.4348 39.5088 42.7811 38.5882 41.3636C37.6676 39.9462 36.3562 38.8256 34.8125 38.1375L28.75 35.4375V33.65C29.8955 32.9829 30.8981 32.0962 31.7004 31.0409C32.5026 29.9855 33.0887 28.7823 33.425 27.5H33.75C34.7446 27.5 35.6984 27.1049 36.4016 26.4017C37.1049 25.6984 37.5 24.7446 37.5 23.75C37.5 22.7554 37.1049 21.8016 36.4016 21.0983C35.6984 20.3951 34.7446 20 33.75 20V19.775C34.4859 19.5183 35.1228 19.0374 35.5713 18.4C36.0198 17.7626 36.2573 17.0007 36.2504 16.2213C36.2435 15.442 35.9925 14.6844 35.5329 14.055C35.0732 13.4257 34.4278 12.9562 33.6875 12.7125C33.4588 10.7667 32.5775 8.95573 31.1875 7.575C30.167 6.54076 28.8969 5.78731 27.5 5.3875V5C27.498 4.33757 27.234 3.70283 26.7656 3.23442C26.2972 2.76601 25.6624 2.50198 25 2.5H22.5C21.8376 2.50198 21.2028 2.76601 20.7344 3.23442C20.266 3.70283 20.002 4.33757 20 5V5.375C18.3627 5.85634 16.903 6.80862 15.8029 8.11329C14.7027 9.41796 14.0105 11.0174 13.8125 12.7125C13.0722 12.9562 12.4268 13.4257 11.9671 14.055C11.5075 14.6844 11.2565 15.442 11.2496 16.2213C11.2427 17.0007 11.4802 17.7626 11.9287 18.4C12.3772 19.0374 13.0141 19.5183 13.75 19.775V20C12.7554 20 11.8016 20.3951 11.0983 21.0983C10.3951 21.8016 10 22.7554 10 23.75C10 24.7446 10.3951 25.6984 11.0983 26.4017C11.8016 27.1049 12.7554 27.5 13.75 27.5H14.075C14.4113 28.7823 14.9974 29.9855 15.7996 31.0409C16.6019 32.0962 17.6045 32.9829 18.75 33.65V35.4375L12.6875 38.1375C11.1438 38.8256 9.83236 39.9462 8.91178 41.3636C7.9912 42.7811 7.50086 44.4348 7.5 46.125V50H5V21.25C5.00297 20.2564 5.39901 19.3042 6.10163 18.6016C6.80425 17.899 7.75635 17.503 8.75 17.5V15C7.0924 15 5.50269 15.6585 4.33058 16.8306C3.15848 18.0027 2.5 19.5924 2.5 21.25V56.25C2.5 57.9076 3.15848 59.4973 4.33058 60.6694C5.50269 61.8415 7.0924 62.5 8.75 62.5H24.8375L23.9 70H22.5C21.5054 70 20.5516 70.3951 19.8483 71.0984C19.1451 71.8016 18.75 72.7554 18.75 73.75C18.75 74.7446 19.1451 75.6984 19.8483 76.4016C20.5516 77.1049 21.5054 77.5 22.5 77.5H47.5C48.4946 77.5 49.4484 77.1049 50.1516 76.4016C50.8549 75.6984 51.25 74.7446 51.25 73.75C51.25 72.7554 50.8549 71.8016 50.1516 71.0984C49.4484 70.3951 48.4946 70 47.5 70H46.1L45.1625 62.5H61.25C62.9076 62.5 64.4973 61.8415 65.6694 60.6694C66.8415 59.4973 67.5 57.9076 67.5 56.25V37.5H65ZM13.75 25C13.4185 25 13.1005 24.8683 12.8661 24.6339C12.6317 24.3995 12.5 24.0815 12.5 23.75C12.5 23.4185 12.6317 23.1005 12.8661 22.8661C13.1005 22.6317 13.4185 22.5 13.75 22.5V25ZM30 42.5C30.2094 42.501 30.4157 42.4495 30.6 42.35C30.7512 42.2654 30.8836 42.1508 30.9889 42.0133C31.0942 41.8757 31.1703 41.7181 31.2125 41.55L31.725 39.5L33.7875 40.4125C34.8926 40.9035 35.8316 41.7045 36.4905 42.7184C37.1495 43.7324 37.5002 44.9157 37.5 46.125V50H28.5L26.6 41.4375L29.6 42.4375C29.7298 42.4765 29.8644 42.4976 30 42.5ZM29.4125 38.4625L29.1125 39.6375L27.1375 38.975L26.675 38.0625L27.5375 37.6375L29.4125 38.4625ZM35 23.75C35 24.0815 34.8683 24.3995 34.6339 24.6339C34.3995 24.8683 34.0815 25 33.75 25V22.5C34.0815 22.5 34.3995 22.6317 34.6339 22.8661C34.8683 23.1005 35 23.4185 35 23.75ZM27.5 8.0375C28.2158 8.34944 28.8683 8.79007 29.425 9.3375C30.2941 10.1988 30.886 11.3 31.125 12.5H27.5V8.0375ZM22.5 5H25V12.5H22.5V5ZM20 8.0375V12.5H16.375C16.5741 11.5188 17.0078 10.6004 17.6391 9.82327C18.2704 9.04616 19.0804 8.43344 20 8.0375ZM13.75 16.25C13.75 15.9185 13.8817 15.6005 14.1161 15.3661C14.3505 15.1317 14.6685 15 15 15H32.5C32.8315 15 33.1495 15.1317 33.3839 15.3661C33.6183 15.6005 33.75 15.9185 33.75 16.25C33.75 16.5815 33.6183 16.8995 33.3839 17.1339C33.1495 17.3683 32.8315 17.5 32.5 17.5H15C14.6685 17.5 14.3505 17.3683 14.1161 17.1339C13.8817 16.8995 13.75 16.5815 13.75 16.25ZM16.25 25V20H31.25V25C31.25 26.9891 30.4598 28.8968 29.0533 30.3033C27.6468 31.7098 25.7391 32.5 23.75 32.5C21.7609 32.5 19.8532 31.7098 18.4467 30.3033C17.0402 28.8968 16.25 26.9891 16.25 25ZM23.0125 43.475C23.2171 43.6526 23.479 43.7505 23.75 43.7505C24.021 43.7505 24.2829 43.6526 24.4875 43.475L25.9375 50H21.5625L23.0125 43.475ZM22.775 39.75L23.275 38.75H24.225L24.725 39.75L23.75 40.7375L22.775 39.75ZM24.7 36.25H22.8L21.25 35.475V34.675C22.8885 35.1083 24.6115 35.1083 26.25 34.675V35.475L24.7 36.25ZM19.9625 37.6375L20.825 38.0625L20.3625 38.975L18.3875 39.6375L18.0875 38.4625L19.9625 37.6375ZM10 46.125C9.99985 44.9157 10.3505 43.7324 11.0095 42.7184C11.6684 41.7045 12.6074 40.9035 13.7125 40.4125L15.775 39.5L16.2875 41.55C16.3297 41.7181 16.4058 41.8757 16.5111 42.0133C16.6164 42.1508 16.7488 42.2654 16.9 42.35C17.0843 42.4495 17.2906 42.501 17.5 42.5C17.6356 42.4976 17.7702 42.4765 17.9 42.4375L20.9 41.4375L19 50H10V46.125ZM47.5 72.5C47.8315 72.5 48.1495 72.6317 48.3839 72.8661C48.6183 73.1005 48.75 73.4185 48.75 73.75C48.75 74.0815 48.6183 74.3995 48.3839 74.6339C48.1495 74.8683 47.8315 75 47.5 75H22.5C22.1685 75 21.8505 74.8683 21.6161 74.6339C21.3817 74.3995 21.25 74.0815 21.25 73.75C21.25 73.4185 21.3817 73.1005 21.6161 72.8661C21.8505 72.6317 22.1685 72.5 22.5 72.5H47.5ZM26.4125 70L27.35 62.5H42.65L43.5875 70H26.4125ZM65 56.25C64.997 57.2436 64.601 58.1958 63.8984 58.8984C63.1958 59.601 62.2436 59.997 61.25 60H8.75C7.75635 59.997 6.80425 59.601 6.10163 58.8984C5.39901 58.1958 5.00297 57.2436 5 56.25V52.5H65V56.25Z" fill="#F38941"/>
<path d="M57.5 55H60V57.5H57.5V55Z" fill="#F38941"/>
<path d="M18.75 22.5H21.25V25H18.75V22.5Z" fill="#F38941"/>
<path d="M26.25 22.5H28.75V25H26.25V22.5Z" fill="#F38941"/>
<path d="M76.4275 18.7625L73.075 18.2837C72.8484 17.5788 72.5646 16.8936 72.2262 16.235L74.2575 13.5275C74.438 13.2868 74.5256 12.989 74.5042 12.6889C74.4829 12.3888 74.354 12.1065 74.1413 11.8938L70.6063 8.35875C70.3936 8.14633 70.1115 8.01766 69.8117 7.99631C69.5118 7.97496 69.2144 8.06236 68.9738 8.2425L66.265 10.2725C65.6062 9.93481 64.9211 9.65137 64.2163 9.425L63.7375 6.0725C63.6948 5.77475 63.5461 5.50239 63.3188 5.30539C63.0915 5.10839 62.8008 4.99996 62.5 5H57.5C57.1992 4.99996 56.9085 5.10839 56.6812 5.30539C56.4539 5.50239 56.3052 5.77475 56.2625 6.0725L55.7837 9.425C55.0789 9.65114 54.3937 9.93459 53.735 10.2725L51.0262 8.2425C50.7856 8.06236 50.4882 7.97496 50.1883 7.99631C49.8885 8.01766 49.6064 8.14633 49.3937 8.35875L45.8588 11.8938C45.646 12.1065 45.5171 12.3888 45.4958 12.6889C45.4744 12.989 45.562 13.2868 45.7425 13.5275L47.7738 16.235C47.4354 16.8936 47.1516 17.5788 46.925 18.2837L43.5725 18.7625C43.2748 18.8052 43.0024 18.9539 42.8054 19.1812C42.6084 19.4085 42.5 19.6992 42.5 20V25C42.5 25.3008 42.6084 25.5915 42.8054 25.8188C43.0024 26.0461 43.2748 26.1948 43.5725 26.2375L46.925 26.7162C47.1516 27.4212 47.4354 28.1064 47.7738 28.765L45.7425 31.4725C45.562 31.7132 45.4744 32.011 45.4958 32.3111C45.5171 32.6112 45.646 32.8935 45.8588 33.1063L49.3937 36.6413C49.6064 36.8537 49.8885 36.9823 50.1883 37.0037C50.4882 37.025 50.7856 36.9376 51.0262 36.7575L53.735 34.7275C54.3937 35.0654 55.0789 35.3489 55.7837 35.575L56.2625 38.9275C56.3052 39.2253 56.4539 39.4976 56.6812 39.6946C56.9085 39.8916 57.1992 40 57.5 40H62.5C62.8008 40 63.0915 39.8916 63.3188 39.6946C63.5461 39.4976 63.6948 39.2253 63.7375 38.9275L64.2163 35.575C64.9211 35.3486 65.6062 35.0652 66.265 34.7275L68.9738 36.7575C69.2144 36.9376 69.5118 37.025 69.8117 37.0037C70.1115 36.9823 70.3936 36.8537 70.6063 36.6413L74.1413 33.1063C74.354 32.8935 74.4829 32.6112 74.5042 32.3111C74.5256 32.011 74.438 31.7132 74.2575 31.4725L72.2262 28.765C72.5646 28.1064 72.8484 27.4212 73.075 26.7162L76.4275 26.2375C76.7252 26.1948 76.9976 26.0461 77.1946 25.8188C77.3916 25.5915 77.5 25.3008 77.5 25V20C77.5 19.6992 77.3916 19.4085 77.1946 19.1812C76.9976 18.9539 76.7252 18.8052 76.4275 18.7625ZM75 23.9162L71.9212 24.3563C71.6765 24.3913 71.4477 24.4981 71.2637 24.6632C71.0797 24.8283 70.9488 25.0443 70.8875 25.2837C70.6237 26.3193 70.2124 27.3115 69.6663 28.23C69.54 28.443 69.4798 28.6887 69.4934 28.936C69.507 29.1832 69.5937 29.4209 69.7425 29.6187L71.6075 32.1062L69.6075 34.1063L67.1187 32.2412C66.9208 32.0929 66.6834 32.0065 66.4364 31.9932C66.1894 31.9798 65.944 32.0401 65.7312 32.1663C64.8135 32.7124 63.8216 33.1229 62.7863 33.385C62.5461 33.4459 62.3295 33.5769 62.1639 33.7611C61.9983 33.9454 61.8913 34.1747 61.8563 34.42L61.4162 37.5H58.5838L58.145 34.4213C58.11 34.176 58.0029 33.9467 57.8373 33.7624C57.6717 33.5781 57.4551 33.4472 57.215 33.3862C56.1797 33.1241 55.1878 32.7136 54.27 32.1675C54.0573 32.0413 53.8119 31.9811 53.5649 31.9944C53.3179 32.0078 53.0804 32.0941 52.8825 32.2425L50.3937 34.1075L48.3938 32.1075L50.2588 29.62C50.4076 29.4221 50.4943 29.1845 50.5079 28.9372C50.5214 28.69 50.4613 28.4443 50.335 28.2312C49.7889 27.3127 49.3776 26.3205 49.1138 25.285C49.0525 25.0455 48.9215 24.8296 48.7375 24.6645C48.5535 24.4994 48.3247 24.3926 48.08 24.3575L45 23.9162V21.0838L48.0788 20.6437C48.3235 20.6087 48.5523 20.5019 48.7363 20.3368C48.9203 20.1717 49.0512 19.9557 49.1125 19.7162C49.3763 18.6807 49.7876 17.6885 50.3337 16.77C50.46 16.557 50.5202 16.3113 50.5066 16.064C50.493 15.8168 50.4063 15.5791 50.2575 15.3813L48.3925 12.8937L50.3925 10.8938L52.8813 12.7587C53.0792 12.9071 53.3166 12.9935 53.5636 13.0068C53.8106 13.0202 54.056 12.9599 54.2688 12.8338C55.1865 12.2876 56.1785 11.8771 57.2137 11.615C57.4539 11.5541 57.6705 11.4231 57.8361 11.2389C58.0017 11.0546 58.1087 10.8253 58.1437 10.58L58.5838 7.5H61.4162L61.855 10.5788C61.89 10.824 61.9971 11.0533 62.1627 11.2376C62.3283 11.4219 62.5449 11.5528 62.785 11.6138C63.8203 11.8759 64.8122 12.2864 65.73 12.8325C65.9427 12.9587 66.1881 13.0189 66.4351 13.0056C66.6821 12.9922 66.9196 12.9059 67.1175 12.7575L69.6063 10.8925L71.6063 12.8925L69.7412 15.38C69.5924 15.5779 69.5057 15.8155 69.4921 16.0628C69.4786 16.31 69.5387 16.5557 69.665 16.7688C70.2111 17.6873 70.6224 18.6795 70.8862 19.715C70.9475 19.9545 71.0785 20.1704 71.2625 20.3355C71.4465 20.5006 71.6753 20.6074 71.92 20.6425L75 21.0838V23.9162Z" fill="#F38941"/>
<path d="M60 15C58.5166 15 57.0666 15.4399 55.8332 16.264C54.5999 17.0881 53.6386 18.2594 53.0709 19.6299C52.5032 21.0003 52.3547 22.5083 52.6441 23.9632C52.9335 25.418 53.6478 26.7544 54.6967 27.8033C55.7456 28.8522 57.082 29.5665 58.5368 29.8559C59.9917 30.1453 61.4997 29.9967 62.8701 29.4291C64.2406 28.8614 65.4119 27.9001 66.236 26.6668C67.0601 25.4334 67.5 23.9834 67.5 22.5C67.498 20.5115 66.7072 18.605 65.3011 17.1989C63.895 15.7928 61.9885 15.002 60 15ZM60 27.5C59.0111 27.5 58.0444 27.2067 57.2221 26.6573C56.3999 26.1079 55.759 25.327 55.3806 24.4134C55.0022 23.4998 54.9031 22.4945 55.0961 21.5245C55.289 20.5546 55.7652 19.6637 56.4645 18.9645C57.1637 18.2652 58.0546 17.789 59.0245 17.5961C59.9945 17.4031 60.9998 17.5022 61.9134 17.8806C62.827 18.259 63.6079 18.8999 64.1573 19.7221C64.7067 20.5444 65 21.5111 65 22.5C65 23.8261 64.4732 25.0978 63.5355 26.0355C62.5978 26.9732 61.3261 27.5 60 27.5Z" fill="#F38941"/>
<path d="M45 40H55V42.5H45V40Z" fill="#F38941"/>
<path d="M45 45H55V47.5H45V45Z" fill="#F38941"/>
</svg>
